<?xml version="1.0" encoding="utf-8"?>
<!-- Generator: Adobe Illustrator 22.0.0, SVG Export Plug-In . SVG Version: 6.00 Build 0)  -->
<svg version="1.1" id="Слой_1" xmlns="http://www.w3.org/2000/svg" xmlns:xlink="http://www.w3.org/1999/xlink" x="0px" y="0px"
	 viewBox="0 0 100.3 58" style="enable-background:new 0 0 100.3 58;" xml:space="preserve">
<style type="text/css">
	.st0{fill:#D9AA70;}
</style>
<g>
	<g>
		<g>
			<path class="st0" d="M92.7,19.9C88.8,9.2,78.6,2.6,67.8,2.6c-0.4,0-0.9,0-1.3,0c0,0.1-0.1,0.1-0.1,0.2c0,0.1,0,0.2,0.1,0.3
				c0.1,0.1,0.2,0.2,0.2,0.3c0.4,0.3,0.7,0.6,1,0.9c0,0-0.1,0-0.2-0.1c0,0.2-0.1,0.4-0.3,0.4c0,0-0.1,0-0.1,0c0,0,0,0-0.1,0
				c0,0,0,0.1,0,0.1c0,0,0,0,0,0.1c0,0,0,0,0,0c0,0,0.1,0,0.1,0c0,0-0.1,0-0.1,0c0.1,0,0.1,0.1,0.1,0.1c0,0,0.1,0,0.1,0
				c0.1,0,0.2-0.1,0.3-0.1c0,0,0.1,0,0.1-0.1c0,0,0,0,0,0c0.1,0,0.2-0.1,0.4,0c0,0,0,0,0,0c0,0,0,0,0,0c0.1,0,0.3,0.1,0.4,0.1
				c0,0-0.1-0.1-0.1-0.1c0.2,0.1,0.4,0.2,0.6,0.2c3.2,1.4,6,3.7,8.3,6.3c-1.1,0.4-2.4,0.7-3.5,0.8c0,0.1,0,0.2,0,0.3
				c1.2-0.2,2.5-0.5,3.8-0.9c0.5,0.6,1,1.2,1.5,1.9c2.1,2.9,3.8,6.1,5.1,9.4c-2.7,1-5.6,1.5-8.5,1.9V25c3-0.4,5.9-0.9,8.6-1.9
				c0.7,2,1.3,4,1.7,6.1c0.4,2.2,0.7,4.5,0.7,6.9c-3.5,1.3-7.2,2-10.9,2.4v0.3c3.7-0.4,7.4-1.1,10.9-2.4c-0.1,3.2-0.6,6.3-1.7,9.2
				c-0.3,0.7-0.6,1.3-0.9,1.9c-1.8,0.6-3.6,1-5.3,1.4c-0.5,0.1-1,0.2-1.5,0.3c0,0.1,0,0.2,0,0.3c0.5-0.1,1.1-0.2,1.6-0.3
				c1.6-0.3,3.4-0.7,5.1-1.3c-1.2,2-2.8,3.7-4.8,4.9c-0.7,0.3-1.4,0.6-2.2,0.9c-0.2,0.1-0.5,0.2-0.7,0.3c-0.1,0.1-0.1,0.3-0.2,0.4
				c0.3-0.1,0.7-0.2,1-0.3c10.8-4,17.5-14,17.6-24.8C94.3,26.1,93.8,23,92.7,19.9z M83.8,8.4c2.8,2.2,5.2,4.9,6.9,8.1
				c0,0.1,0,0.2,0,0.3c0,0.7-0.2,1.4-0.6,2c-1.2-2.3-2.9-4.4-4.7-6.2c-1.4-1.3-2.8-2.5-4.4-3.6c0.3-0.4,0.4-0.9,0.4-1.3
				c0-0.3-0.1-0.7-0.2-1C82.1,7.4,83,7.9,83.8,8.4z M81.1,7.9c0,0.3-0.1,0.7-0.3,1.1c-3.2-2.1-6.8-3.5-10.5-4.3
				c-0.3-0.1-0.7-0.1-1-0.2c0.5,0,1-0.1,1.4-0.1c1.9,0,3.9,0.3,5.7,0.7c1.5,0.4,3,0.9,4.4,1.5C81,7.1,81.1,7.4,81.1,7.9z M74.3,3.8
				C76.3,4.3,78.2,5,80,6c0.1,0.1,0.2,0.2,0.3,0.2c-1.3-0.5-2.6-1-3.9-1.3c-1.8-0.4-3.8-0.7-5.7-0.7c-0.5,0-1,0-1.5,0.1
				c1.2-0.4,2.6-0.6,3.9-0.6C73.4,3.7,73.9,3.7,74.3,3.8z M68,4.3c-0.3-0.5-0.8-1-1.3-1.3c0.4,0,0.8,0,1.2,0c0.5,0,1,0,1.5,0.1
				C68.8,3.3,68.3,3.8,68,4.3z M68.4,4.3c0.4-0.5,0.9-1,1.5-1.2c1,0.1,2,0.2,3,0.4C71.3,3.5,69.7,3.7,68.4,4.3z M69,4.8
				C69,4.8,68.9,4.8,69,4.8c0.3,0,0.8,0.1,1.2,0.2c3.7,0.7,7.3,2.2,10.4,4.2c-0.8,0.9-1.9,1.6-3.1,2.1C75.1,8.6,72.3,6.3,69,4.8z
				 M79.1,13.3c-0.5-0.6-0.9-1.2-1.4-1.8c1.2-0.5,2.4-1.2,3.2-2.1c1.6,1,3.1,2.2,4.4,3.5c1.9,1.8,3.6,3.9,4.8,6.2
				c-1.3,1.8-3.7,2.9-5.8,3.7C82.9,19.4,81.2,16.2,79.1,13.3z M80.3,51.9c1.4-1.2,2.7-2.6,3.6-4.3c1.4-0.5,2.7-1.1,3.9-1.9
				C85.8,48.2,83.3,50.3,80.3,51.9z M93.3,33.2c-0.1,1.2-0.3,2.4-0.6,3.6c-0.9,2.9-2.3,5.6-4.2,8c-1.3,1.1-2.8,1.8-4.4,2.4
				c0.3-0.5,0.6-1.1,0.8-1.7c1.2-3,1.7-6.2,1.8-9.4c0.2-0.1,0.3-0.1,0.5-0.2c2.1-0.8,4.7-2,6.2-4C93.3,32.5,93.3,32.9,93.3,33.2z
				 M93.4,31.7L93.4,31.7L93.4,31.7C92,33.7,89.3,35,87,35.8c-0.1,0-0.2,0.1-0.4,0.1c0-2.3-0.2-4.6-0.7-6.8c-0.4-2.1-1-4.1-1.7-6.1
				c2.1-0.8,4.4-1.9,5.8-3.7c2.9,5.8,3.3,9.7,3.3,12.1C93.4,31.5,93.4,31.6,93.4,31.7C93.4,31.6,93.4,31.6,93.4,31.7L93.4,31.7z
				 M93.5,33.6c0-0.1,0-0.2,0-0.3c0-0.4,0.1-0.9,0.1-1.6c0.1-0.1,0.1-0.2,0.2-0.3C93.7,32.2,93.6,32.9,93.5,33.6z M93.6,31.2
				c0-2.5-0.5-6.4-3.4-12.1c0,0,0,0,0,0c0.5-0.6,0.7-1.3,0.7-2c0.5,0.9,0.9,1.9,1.3,3c1.1,3,1.6,6.1,1.6,9.2c0,0.5,0,1.1-0.1,1.6
				C93.8,31,93.7,31.1,93.6,31.2z"/>
		</g>
	</g>
</g>
<g>
	<g>
		<path class="st0" d="M85.5,9.1c-0.1-0.1-0.2-0.1-0.3-0.2c0,0,0,0-0.1-0.1C85.2,8.9,85.4,9,85.5,9.1z"/>
	</g>
</g>
<g>
	<g>
		<path class="st0" d="M6,37.6c0,1,0.1,1.7,0.2,2.3c0.1,0.5,0.4,0.8,0.9,0.9V41H3.2v-0.2c0.5-0.1,0.8-0.4,0.9-0.9
			c0.1-0.5,0.2-1.2,0.2-2.1V27.3c0-0.6,0-1.2-0.1-1.6c0-0.4-0.1-0.7-0.3-1.1c-0.2-0.3-0.4-0.5-0.7-0.6v-0.2h3.9v0.2
			c-0.3,0.1-0.6,0.2-0.7,0.5c-0.2,0.3-0.2,0.6-0.3,1C6,26,6,26.5,6,27.1v1.5h4.9v-1.3c0-1-0.1-1.8-0.2-2.3c-0.1-0.5-0.4-0.8-0.9-0.9
			v-0.2h3.9v0.2c-0.3,0.1-0.6,0.2-0.7,0.5s-0.2,0.6-0.3,0.9c0,0.3-0.1,0.9-0.1,1.5v10.5c0,0.7,0,1.3,0.1,1.6c0,0.4,0.1,0.7,0.3,1
			c0.2,0.3,0.4,0.5,0.7,0.6V41H9.8v-0.2c0.3-0.1,0.6-0.2,0.7-0.5c0.2-0.3,0.2-0.6,0.3-0.9c0-0.3,0.1-0.9,0.1-1.6v-7.9H6V37.6z"/>
		<path class="st0" d="M14.1,41.3H9.5v-0.8l0.3,0c0.2,0,0.4-0.1,0.5-0.3c0.1-0.2,0.2-0.5,0.2-0.8c0-0.3,0.1-0.9,0.1-1.6v-7.6H6.3
			v7.4c0,0.9,0.1,1.7,0.2,2.2c0.1,0.5,0.4,0.6,0.6,0.7l0.3,0v0.8H2.8v-0.8l0.2-0.1c0.4-0.1,0.6-0.3,0.7-0.7c0.1-0.5,0.2-1.1,0.2-2
			V27.3c0-0.6,0-1.1-0.1-1.5c0-0.4-0.1-0.7-0.3-0.9c-0.1-0.2-0.3-0.3-0.5-0.4l-0.2-0.1v-0.8h4.5v0.8l-0.3,0c-0.2,0-0.4,0.2-0.5,0.3
			c-0.1,0.2-0.2,0.5-0.2,0.9c0,0.4-0.1,0.9-0.1,1.5v1.2h4.3v-1c0-1-0.1-1.8-0.2-2.3c-0.1-0.4-0.3-0.6-0.6-0.6l-0.3,0v-0.8h4.6v0.8
			l-0.3,0c-0.2,0-0.4,0.2-0.5,0.4c-0.1,0.2-0.2,0.5-0.2,0.8c0,0.3-0.1,0.8-0.1,1.5v10.5c0,0.7,0,1.2,0.1,1.6c0,0.3,0.1,0.6,0.2,0.9
			c0.1,0.2,0.3,0.3,0.5,0.4l0.2,0.1V41.3z M10.6,40.7H13c-0.1-0.1-0.2-0.2-0.2-0.3c-0.2-0.3-0.3-0.7-0.3-1.1c0-0.4-0.1-0.9-0.1-1.6
			V27.1c0-0.7,0-1.2,0.1-1.6c0-0.4,0.1-0.7,0.3-1c0.1-0.1,0.1-0.2,0.2-0.3h-2.4c0.2,0.2,0.3,0.4,0.4,0.7c0.1,0.5,0.2,1.3,0.2,2.4
			v1.7H5.7v-1.8c0-0.7,0-1.2,0.1-1.5c0-0.4,0.1-0.8,0.3-1.1c0.1-0.1,0.1-0.2,0.2-0.3H3.9c0.1,0.1,0.2,0.2,0.3,0.4
			c0.2,0.3,0.3,0.7,0.3,1.2c0,0.4,0.1,0.9,0.1,1.6v10.5c0,1-0.1,1.7-0.2,2.2c-0.1,0.3-0.2,0.5-0.4,0.7h2.3c-0.2-0.2-0.3-0.4-0.4-0.8
			c-0.1-0.6-0.2-1.3-0.2-2.3v-8h5.5v8.2c0,0.7,0,1.3-0.1,1.6c0,0.4-0.1,0.7-0.3,1C10.8,40.6,10.7,40.6,10.6,40.7z"/>
	</g>
	<g>
		<path class="st0" d="M20.1,37.5c-0.2,0.8-0.3,1.4-0.3,1.8c0,0.4,0.1,0.7,0.3,1c0.2,0.3,0.4,0.4,0.6,0.4V41h-3.3v-0.2
			c0.2-0.1,0.4-0.2,0.5-0.3c0.1-0.1,0.2-0.3,0.3-0.5c0.2-0.5,0.5-1.3,0.7-2.4l2.6-11.1c0.2-0.7,0.2-1.2,0.2-1.5
			c0-0.5-0.2-0.7-0.5-0.8v-0.2h3.6v0.2c-0.3,0.1-0.5,0.5-0.5,0.9c0,0.2,0,0.6,0.1,1l2.8,12.8c0.2,0.7,0.3,1.1,0.4,1.3
			c0.1,0.2,0.3,0.4,0.6,0.6V41h-3.7v-0.2c0.5-0.2,0.8-0.8,0.8-1.8c0-0.8-0.2-1.6-0.6-2.5c-0.4-0.9-0.9-1.6-1.6-2.2
			c-0.7-0.6-1.5-0.9-2.3-0.9L20.1,37.5z M22.7,25.8l-1.5,6.3c0.6,0,1.2,0.2,1.8,0.5c0.6,0.3,1.1,0.9,1.5,1.6L22.7,25.8z"/>
		<path class="st0" d="M28.7,41.3h-4.3v-0.8l0.2-0.1c0.4-0.1,0.6-0.7,0.6-1.5c0-0.7-0.2-1.5-0.6-2.4c-0.4-0.8-0.9-1.5-1.5-2.1
			c-0.6-0.5-1.2-0.7-1.8-0.8l-0.9,3.9c-0.2,0.8-0.3,1.4-0.3,1.8c0,0.3,0.1,0.6,0.2,0.8c0.1,0.2,0.3,0.3,0.4,0.3l0.3,0v0.8h-4v-0.8
			l0.2-0.1c0.2-0.1,0.4-0.2,0.4-0.2c0.1-0.1,0.2-0.2,0.3-0.4c0.2-0.5,0.5-1.3,0.7-2.4l2.6-11.1c0.2-0.7,0.2-1.2,0.2-1.4
			c0-0.5-0.2-0.5-0.3-0.5L21,24.3v-0.8h4.2v0.8l-0.2,0.1c-0.1,0-0.3,0.1-0.3,0.7c0,0.2,0,0.5,0.1,0.9l2.8,12.8
			c0.2,0.6,0.3,1.1,0.4,1.3c0.1,0.2,0.2,0.3,0.4,0.4l0.2,0.1V41.3z M25.3,40.7h2.4c-0.1-0.1-0.2-0.2-0.2-0.4
			c-0.1-0.3-0.2-0.7-0.4-1.4l-2.8-12.8c-0.1-0.4-0.2-0.8-0.2-1.1c0-0.4,0.1-0.7,0.2-0.9h-2.5c0.1,0.2,0.2,0.4,0.2,0.8
			c0,0.3-0.1,0.8-0.2,1.6l-2.6,11.1c-0.3,1.2-0.5,2-0.8,2.5c-0.1,0.3-0.3,0.5-0.4,0.6h1.9c-0.1-0.1-0.1-0.1-0.2-0.2
			c-0.2-0.3-0.3-0.7-0.3-1.1c0-0.4,0.1-1.1,0.3-1.9l0,0l1-4.4l0.3,0c0.9,0,1.7,0.4,2.5,1c0.7,0.6,1.3,1.4,1.7,2.3
			c0.4,0.9,0.6,1.8,0.6,2.6C25.8,39.8,25.7,40.3,25.3,40.7z M25.3,35.9l-1-1.6c-0.4-0.6-0.9-1.1-1.4-1.4c-0.5-0.3-1.1-0.5-1.7-0.5
			h-0.4l1.9-8L25.3,35.9z M21.6,31.8c0.5,0.1,1.1,0.2,1.6,0.5c0.3,0.2,0.5,0.4,0.7,0.6l-1.2-5.7L21.6,31.8z"/>
	</g>
	<g>
		<path class="st0" d="M37.4,36.9l-3.8-10c-0.3-0.9-0.6-1.6-0.8-2c-0.2-0.5-0.5-0.7-0.8-0.8v-0.2h3.6v0.2c-0.2,0.1-0.3,0.3-0.3,0.7
			c0,0.3,0.1,0.6,0.2,1c0.1,0.3,0.3,0.8,0.5,1.5l2.4,6.7l1.8-6.7c0.2-0.8,0.3-1.5,0.3-2c0-0.7-0.2-1-0.6-1.1v-0.2h2.9v0.2
			c-0.3,0.1-0.6,0.3-0.8,0.8c-0.2,0.4-0.4,1.1-0.7,2l-2.8,10c-0.2,0.9-0.5,1.6-0.7,2.2c-0.3,0.6-0.6,1.2-0.9,1.6
			c-0.3,0.4-0.7,0.7-1.1,0.8c-0.2,0.1-0.3,0.1-0.5,0.1c-0.8,0-1.6-0.5-2.2-1.4l1.2-4.7l0.2,0c-0.1,0.6-0.1,1.2-0.1,1.7
			c0,1.8,0.5,2.8,1.4,2.8c0.4-0.1,0.7-0.4,1-1C36.9,38.4,37.2,37.7,37.4,36.9z"/>
		<path class="st0" d="M35.1,41.8c-0.9,0-1.8-0.5-2.5-1.5l-0.1-0.1l1.3-5.1l0.7,0.1l0,0.3c-0.1,0.6-0.1,1.2-0.1,1.7
			c0,1.6,0.4,2.4,1,2.5c0.3-0.1,0.6-0.3,0.8-0.8c0.3-0.5,0.5-1.1,0.7-1.9L33.2,27c-0.3-0.9-0.6-1.5-0.8-2c-0.2-0.4-0.4-0.6-0.6-0.6
			l-0.2-0.1v-0.8h4.2v0.8l-0.2,0.1c-0.1,0-0.1,0.3-0.1,0.4c0,0.3,0,0.6,0.1,0.9c0.1,0.3,0.3,0.8,0.5,1.5l2.1,5.8l1.5-5.8
			c0.2-0.8,0.3-1.4,0.3-1.9c0-0.5-0.1-0.8-0.3-0.8l-0.2-0.1v-0.8H43v0.8l-0.2,0.1c-0.2,0-0.4,0.2-0.6,0.6c-0.2,0.4-0.4,1.1-0.6,1.9
			l-2.8,10c-0.2,0.9-0.5,1.6-0.8,2.3c-0.3,0.7-0.6,1.2-0.9,1.6c-0.4,0.5-0.8,0.8-1.3,0.9C35.6,41.7,35.4,41.8,35.1,41.8z M33.3,40
			c0.6,0.8,1.2,1.2,1.9,1.2c0.1,0,0.3,0,0.4-0.1c0.4-0.1,0.7-0.3,1-0.7c0.3-0.4,0.6-0.9,0.9-1.5c0.3-0.6,0.5-1.4,0.7-2.2l2.8-10
			c0.2-0.9,0.5-1.5,0.7-2c0.1-0.2,0.2-0.4,0.4-0.6h-1.6c0.2,0.2,0.3,0.5,0.3,1.1c0,0.5-0.1,1.2-0.3,2.1l-2,7.7l-2.8-7.7
			c-0.2-0.7-0.4-1.2-0.5-1.5c-0.1-0.4-0.2-0.7-0.2-1c0-0.3,0-0.5,0.1-0.6h-2.4c0.1,0.1,0.3,0.3,0.4,0.6c0.2,0.5,0.5,1.2,0.9,2.1
			l3.9,10.1l0,0.1c-0.2,0.8-0.5,1.5-0.8,2.1c-0.3,0.6-0.8,1-1.2,1.1l-0.1,0c-1,0-1.6-0.9-1.7-2.6L33.3,40z"/>
	</g>
	<g>
		<path class="st0" d="M47.5,27.3c0-1-0.1-1.7-0.2-2.2c-0.1-0.5-0.4-0.8-0.9-0.9v-0.2h3.9v0.2c-0.5,0.1-0.8,0.4-0.9,0.8
			c-0.1,0.5-0.2,1.2-0.2,2.1v3.2l1.4-1.8c0.3-0.3,0.6-0.8,0.9-1.2s0.6-0.9,0.9-1.4c0.3-0.5,0.4-0.9,0.4-1.1c0-0.2,0-0.4-0.1-0.5
			c-0.1-0.1-0.2-0.1-0.3-0.2v-0.2h3.9v0.2c-0.4,0-0.7,0.2-1.1,0.4c-0.3,0.2-0.6,0.5-0.9,0.8c-0.3,0.3-0.6,0.7-1.1,1.3l-1.2,1.6
			c0.6,0.8,1.1,1.7,1.5,2.6c0.4,0.9,0.8,1.9,1.1,2.8c0.3,1,0.7,2.1,1,3.4l0.3,1.2c0,0.2,0.1,0.4,0.2,0.7c0.1,0.3,0.2,0.6,0.3,0.9
			c0.1,0.2,0.2,0.4,0.3,0.6c0.1,0.1,0.3,0.2,0.5,0.3V41h-3.6v-0.2c0.4-0.1,0.6-0.4,0.6-1c0-0.6-0.1-1.4-0.4-2.5
			c-0.3-1-0.5-1.9-0.8-2.7c-0.6-1.6-1.3-3.1-2.2-4.7l-1.6,2v5.7c0,1,0.1,1.7,0.2,2.3c0.1,0.5,0.4,0.8,0.9,0.9V41h-3.9v-0.2
			c0.3-0.1,0.6-0.3,0.7-0.5c0.2-0.3,0.2-0.6,0.3-1c0-0.4,0.1-0.9,0.1-1.5V27.3z"/>
		<path class="st0" d="M57.6,41.3h-4.2v-0.8l0.2-0.1c0.1,0,0.3-0.1,0.3-0.7c0-0.6-0.1-1.4-0.4-2.4c-0.3-1-0.5-1.9-0.8-2.6
			c-0.5-1.4-1.2-2.8-2-4.2L49.6,32v5.6c0,0.9,0.1,1.7,0.2,2.2c0.1,0.5,0.4,0.6,0.6,0.7l0.3,0v0.8h-4.5v-0.8l0.2-0.1
			c0.2-0.1,0.4-0.2,0.5-0.4c0.1-0.2,0.2-0.5,0.2-0.9c0-0.4,0.1-0.8,0.1-1.5V27.3c0-0.9-0.1-1.7-0.2-2.2c-0.1-0.4-0.3-0.6-0.7-0.7
			l-0.2-0.1v-0.8h4.5v0.8l-0.3,0c-0.3,0.1-0.5,0.2-0.6,0.6c-0.1,0.5-0.2,1.2-0.2,2.1v2.3l0.9-1.1c0.3-0.3,0.6-0.7,0.9-1.2
			c0.3-0.4,0.6-0.9,0.9-1.4c0.3-0.5,0.4-0.8,0.4-1c0-0.2,0-0.3,0-0.3c0,0,0,0-0.2-0.1l-0.3,0v-0.8h4.6v0.8l-0.3,0
			c-0.3,0-0.6,0.1-0.9,0.4c-0.3,0.2-0.6,0.5-0.8,0.8c-0.3,0.3-0.6,0.7-1,1.3l-1.1,1.4c0.5,0.8,1,1.6,1.4,2.5
			c0.4,0.9,0.8,1.9,1.2,2.9c0.3,1,0.7,2.1,1,3.4l0.5,1.9c0.1,0.3,0.2,0.6,0.3,0.8c0.1,0.2,0.2,0.4,0.3,0.5c0.1,0.1,0.2,0.2,0.3,0.2
			l0.2,0.1V41.3z M54.3,40.7h2.3c0,0,0,0,0,0c-0.2-0.2-0.3-0.4-0.4-0.7c-0.1-0.2-0.2-0.5-0.3-0.9l-0.5-1.9c-0.3-1.3-0.7-2.4-1-3.4
			c-0.3-1-0.7-1.9-1.1-2.8c-0.4-0.9-0.9-1.8-1.5-2.6l-0.1-0.2l1.4-1.8c0.5-0.6,0.8-1,1.1-1.3c0.3-0.3,0.6-0.6,1-0.9
			c0,0,0.1-0.1,0.1-0.1h-2.2c0.1,0.1,0.1,0.3,0.1,0.6c0,0.3-0.1,0.8-0.4,1.3c-0.3,0.5-0.6,1-0.9,1.4c-0.3,0.5-0.6,0.9-0.9,1.2
			l-2,2.5v-4.1c0-1,0.1-1.7,0.2-2.2c0.1-0.3,0.2-0.5,0.4-0.7h-2.4c0.2,0.2,0.3,0.5,0.4,0.8c0.1,0.5,0.2,1.3,0.2,2.3v10.5
			c0,0.6,0,1.1-0.1,1.5c0,0.4-0.1,0.8-0.3,1.1c-0.1,0.1-0.1,0.2-0.2,0.3h2.4c-0.2-0.2-0.3-0.4-0.4-0.8c-0.1-0.6-0.2-1.3-0.2-2.3
			v-5.8l1.9-2.4l0.2,0.4c0.9,1.6,1.7,3.2,2.2,4.7c0.3,0.7,0.5,1.6,0.8,2.7c0.3,1.1,0.4,1.9,0.4,2.6C54.5,40.2,54.4,40.5,54.3,40.7z"
			/>
	</g>
	<g>
		<path class="st0" d="M63.7,37.6c0,1,0.1,1.7,0.2,2.3c0.1,0.5,0.4,0.8,0.9,0.9V41h-3.9v-0.2c0.5-0.1,0.8-0.4,0.9-0.9
			c0.1-0.5,0.2-1.2,0.2-2.1V27.3c0-0.6,0-1.2-0.1-1.6c0-0.4-0.1-0.7-0.3-1.1c-0.2-0.3-0.4-0.5-0.7-0.6v-0.2h3.9v0.2
			c-0.3,0.1-0.6,0.2-0.7,0.5c-0.2,0.3-0.2,0.6-0.3,1c0,0.4-0.1,0.9-0.1,1.5v5.5l4.9-6.8c0-0.5-0.1-0.9-0.2-1.2
			c-0.1-0.3-0.4-0.5-0.9-0.6v-0.2h3.9v0.2c-0.5,0.1-0.8,0.4-0.9,0.9c-0.1,0.5-0.2,1.2-0.2,2.1v10.5c0,0.7,0,1.3,0.1,1.6
			c0,0.4,0.1,0.7,0.3,1c0.2,0.3,0.4,0.5,0.7,0.6V41h-3.9v-0.2c0.3-0.1,0.6-0.2,0.7-0.5c0.2-0.3,0.2-0.6,0.3-1c0-0.4,0.1-0.9,0.1-1.5
			V27.6l-4.9,6.8V37.6z"/>
		<path class="st0" d="M71.7,41.3h-4.6v-0.8l0.3,0c0.2,0,0.4-0.1,0.5-0.3c0.1-0.2,0.2-0.5,0.2-0.9c0-0.4,0.1-0.9,0.1-1.5v-9.2
			L64,34.5v3.1c0,0.9,0.1,1.7,0.2,2.2c0.1,0.5,0.4,0.6,0.6,0.7l0.3,0v0.8h-4.5v-0.8l0.2-0.1c0.4-0.1,0.6-0.3,0.7-0.7
			c0.1-0.5,0.2-1.1,0.2-2V27.3c0-0.6,0-1.1-0.1-1.5c0-0.4-0.1-0.7-0.3-0.9c-0.1-0.2-0.3-0.3-0.5-0.4l-0.2-0.1v-0.8H65v0.8l-0.3,0
			c-0.2,0-0.4,0.2-0.5,0.3c-0.1,0.2-0.2,0.5-0.2,0.9c0,0.4-0.1,0.9-0.1,1.5v4.5l4.2-5.9c0-0.4-0.1-0.7-0.2-1c0-0.1-0.1-0.3-0.6-0.4
			l-0.3,0v-0.8h4.6v0.8l-0.2,0c-0.3,0.1-0.6,0.3-0.6,0.6c-0.1,0.5-0.2,1.2-0.2,2v10.5c0,0.7,0,1.2,0.1,1.6c0,0.3,0.1,0.6,0.2,0.9
			c0.1,0.2,0.3,0.3,0.5,0.4l0.2,0.1V41.3z M68.3,40.7h2.4c-0.1-0.1-0.2-0.2-0.2-0.3c-0.2-0.3-0.3-0.7-0.3-1.1c0-0.4-0.1-0.9-0.1-1.6
			V27.1c0-1,0.1-1.7,0.2-2.2c0.1-0.3,0.2-0.6,0.4-0.7h-2.2c0.1,0.1,0.2,0.2,0.3,0.4c0.1,0.3,0.2,0.8,0.2,1.3v0.1l-5.5,7.6v-6.5
			c0-0.7,0-1.2,0.1-1.5c0-0.4,0.1-0.8,0.3-1.1c0.1-0.1,0.1-0.2,0.2-0.3h-2.4c0.1,0.1,0.2,0.2,0.3,0.4c0.2,0.3,0.3,0.7,0.3,1.2
			c0,0.4,0.1,0.9,0.1,1.6v10.5c0,1-0.1,1.7-0.2,2.2c-0.1,0.3-0.2,0.5-0.4,0.7h2.3c-0.2-0.2-0.3-0.4-0.4-0.8
			c-0.1-0.6-0.2-1.3-0.2-2.3v-3.3l5.5-7.6v11.2c0,0.7,0,1.2-0.1,1.6c0,0.4-0.2,0.8-0.3,1.1C68.4,40.6,68.3,40.6,68.3,40.7z"/>
	</g>
</g>
<g>
	<g>
		<path class="st0" d="M40,11.2h-4.1v-0.7h0.7c0-1-0.2-1.8-0.5-2.2c-0.3-0.4-0.7-0.5-1.1-0.5c-0.5,0-0.9,0.2-1.3,0.7
			C33.2,9,33,9.9,33,11.1c0,0.6,0,1.2,0.1,1.8s0.2,1.3,0.5,2.2c0.2,0.9,0.3,1.6,0.3,2.2c0,0.1,0,0.3,0,0.4c0,0.1-0.1,0.2-0.1,0.3
			l-0.1,0.2c0.1,0.1,0.2,0.1,0.4,0.1c0.6,0,1.2-0.4,1.7-1.2c0.5-0.8,0.8-1.7,0.8-2.6c0-0.2,0-0.3,0-0.4h-0.7v-0.7H40V14h-0.6
			c0,1.3-0.6,2.4-1.8,3.4c-1.1,0.9-2.3,1.3-3.6,1.3c-0.3,0-0.5,0-0.7,0c-0.1,0-0.3-0.1-0.5-0.2v-0.2c0-0.4,0-0.7-0.1-1
			c-0.2-0.4-0.5-1-1-1.7c-0.6-0.8-1.1-1.5-1.3-2.1c-0.1-0.4-0.2-0.9-0.2-1.5c0-1.5,0.5-2.7,1.4-3.6c0.9-0.9,2-1.3,3.4-1.3
			c1.5,0,2.6,0.4,3.3,1.3c0.5,0.6,0.8,1.3,1,2.2H40V11.2z"/>
	</g>
	<g>
		<path class="st0" d="M43,17.6l0-6.9c0-1.5,0.3-2.5,0.8-2.9c0.5-0.5,1.7-0.7,3.4-0.7c1,0,1.8,0.3,2.4,0.8c0.6,0.5,0.8,1.1,0.8,1.8
			c0,0.7-0.3,1.3-1,1.8c-0.5,0.3-1,0.5-1.4,0.5c-0.1,0-0.2,0-0.2,0s-0.1,0-0.2,0c-0.2,0-0.5-0.1-0.8-0.2l-1,0.5
			c0.5,0.4,0.9,0.7,1.4,0.9c0.2,0.1,0.4,0.1,0.6,0.2c0.2,0.1,0.5,0.1,0.8,0.2c0.5,0.1,0.8,0.2,0.8,0.2c0.5,0.2,0.7,0.4,0.9,0.7
			c0.1,0.2,0.1,0.4,0.1,0.7v1.9v0.5c0,0.2-0.1,0.5-0.4,0.6c-0.3,0.2-0.6,0.3-0.9,0.3l-7.5-0.1v-0.7H43z M45.4,12l1.1-0.8
			c0.1,0.1,0.2,0.1,0.3,0.1c0.2,0,0.3,0,0.5-0.1c0.1-0.1,0.2-0.1,0.3-0.1c0.2-0.2,0.3-0.4,0.4-0.4c0.1-0.2,0.2-0.6,0.2-1.2
			c0-0.6-0.1-1-0.4-1.2c-0.2-0.3-0.5-0.4-0.9-0.4c-0.6,0-1,0.4-1.2,1.1c-0.1,0.5-0.2,1.2-0.2,2.2c0,0.2,0,0.3,0,0.5
			S45.4,11.8,45.4,12z M45.4,17.6h1.9c0.3,0,0.4-0.1,0.5-0.2c0.1-0.1,0.1-0.4,0.1-0.9v-1.8c0-0.2,0-0.4-0.1-0.5
			c-0.1-0.1-0.3-0.2-0.6-0.4c-0.5-0.3-0.9-0.5-1.1-0.6c-0.3-0.2-0.6-0.5-0.8-0.8V17.6z"/>
	</g>
	<g>
		<path class="st0" d="M54.3,17.6V8H53V7.3h5.1V8h-1.3v9.7h1.3v0.7H53v-0.7H54.3z"/>
	</g>
	<g>
		<path class="st0" d="M64.5,17.6V8h-0.7c-0.6,0-1,0.1-1.2,0.2c-0.3,0.3-0.6,0.9-0.9,2.1c-0.1,0.3-0.1,0.4-0.1,0.5
			c-0.1,0.2-0.2,0.3-0.4,0.3c-0.2,0-0.3-0.1-0.4-0.2c-0.1-0.1-0.1-0.3-0.1-0.5c0-0.4-0.1-0.9-0.3-1.4c0-0.1-0.1-0.4-0.3-0.7
			C60.1,8,60,7.8,60,7.7c0-0.2,0.1-0.3,0.2-0.4c0.1-0.1,0.3-0.2,0.5-0.2c0.3,0.1,0.6,0.1,1,0.2c0.3,0,0.7,0.1,1.2,0.1h0.6h4.7h0.6
			c0.5,0,0.9,0,1.2-0.1c0.3,0,0.6-0.1,0.9-0.2c0.2,0,0.4,0.1,0.5,0.2c0.1,0.1,0.2,0.3,0.2,0.4c0,0.1-0.1,0.3-0.2,0.7
			C71.1,8.7,71,8.9,71,9c-0.1,0.2-0.2,0.5-0.2,0.7c-0.1,0.2-0.1,0.5-0.1,0.7c0,0.2,0,0.4,0,0.4C70.6,11,70.4,11,70.2,11
			c-0.2,0-0.3-0.2-0.4-0.5c0-0.1-0.1-0.4-0.2-0.8c-0.2-0.7-0.4-1.2-0.7-1.5C68.6,8.1,68.3,8,67.9,8h-0.3h-0.7v9.7h1.3v0.7h-5v-0.7
			H64.5z"/>
	</g>
</g>
<g>
	<g>
		<path class="st0" d="M81.7,2.5L81,3.9L81.3,4l-0.1,0.2l-1.3-0.7l0.1-0.2l0.4,0.2l1.5-2.7l-0.4-0.2l0.1-0.2l1.3,0.7l-0.1,0.2
			l-0.3-0.2l-0.6,1.1l1,0.5l0.6-1.1l-0.3-0.2l0.1-0.2l1.3,0.7l-0.1,0.2L84,2.1l-1.5,2.7L83,4.9l-0.1,0.2l-1.3-0.7l0.1-0.2l0.3,0.2
			L82.7,3L81.7,2.5z"/>
	</g>
	<g>
		<path class="st0" d="M85.4,4.1l0.4,0.3c0,0,0,0,0,0.1c0,0,0,0.1-0.1,0.1c0,0,0,0.1-0.1,0.1L85.6,5l-0.1,0.1
			c-0.2,0.4-0.3,0.8-0.4,1c0,0.2-0.1,0.3-0.1,0.5c0,0-0.1,0-0.1,0l-0.4-0.3c0,0,0,0,0-0.1c0,0,0-0.1,0-0.1c0-0.1,0-0.1,0-0.2
			l0.1-0.2l0.1-0.2c-0.2,0.2-0.4,0.3-0.5,0.3c-0.2,0.1-0.4,0-0.6-0.1c-0.2-0.1-0.2-0.3-0.2-0.4c0-0.1,0.1-0.3,0.1-0.4
			c0.1-0.1,0.3-0.2,0.5-0.3c0.1,0,0.3-0.1,0.6-0.2c0,0,0.1,0,0.3-0.1c0.1,0,0.1,0,0.1-0.1c0,0,0,0,0-0.1c0,0,0-0.1,0-0.1
			C85.3,4.1,85.3,4.1,85.4,4.1C85.3,4.1,85.3,4.1,85.4,4.1z M85.2,4.5c-0.2,0-0.4,0.1-0.6,0.2c-0.2,0.1-0.3,0.2-0.4,0.3
			c0,0.1-0.1,0.1-0.1,0.2c0,0.1,0,0.2,0.1,0.2c0.1,0.1,0.2,0.1,0.3,0.1c0.1,0,0.2-0.1,0.2-0.1c0,0,0.1-0.1,0.1-0.2
			C85,5.1,85,5.1,85,5l0.1-0.2L85.2,4.5z"/>
	</g>
	<g>
		<path class="st0" d="M86.3,7.4L86.3,7.4l0.1,0.2c0.2-0.2,0.4-0.4,0.5-0.5C87,7,87.2,6.9,87.3,6.8c0.2-0.2,0.4-0.3,0.5-0.3
			c0.3-0.1,0.5-0.1,0.7,0.1c0.1,0,0.1,0.1,0.1,0.1s0,0.1,0,0.1c0,0-0.1,0-0.1,0.1c0,0-0.1,0-0.1,0c0,0-0.1,0.1-0.1,0.1l0,0l-0.1,0.1
			c0,0-0.1,0.1-0.1,0.1L88,7.1c0-0.1,0-0.1-0.1-0.2c-0.1-0.1-0.3-0.1-0.4,0c-0.3,0.1-0.6,0.5-1.1,1c-0.2,0.3-0.4,0.4-0.4,0.6
			c-0.2,0.3-0.3,0.4-0.3,0.4c0,0-0.1,0-0.1,0c-0.1,0-0.1-0.1-0.3-0.2c0,0,0-0.1,0-0.1c0.1-0.1,0.2-0.2,0.3-0.3
			C85.7,8.1,85.8,8,86,7.8l0.2-0.2L86,7.5c-0.1-0.1-0.2-0.1-0.2-0.2c0,0-0.1-0.1-0.1-0.1c0,0,0,0,0-0.1c0,0,0,0,0,0L85.8,7
			c0.2-0.2,0.3-0.4,0.5-0.8c0.2-0.3,0.3-0.6,0.4-0.9c0-0.1,0-0.1,0.1-0.1c0,0,0,0,0-0.1c0,0,0,0,0.1,0c0,0,0.1,0.1,0.2,0.1
			c0.1,0.1,0.1,0.1,0.1,0.1c0,0,0.1,0.1,0.1,0.1c0,0,0,0.1,0,0.2c0,0.1-0.2,0.4-0.4,0.9C86.5,7,86.4,7.3,86.3,7.4z"/>
	</g>
	<g>
		<path class="st0" d="M88.8,8.3L88.8,8.3c0.5-0.1,0.8-0.1,1.1-0.1c0.2,0,0.4,0.1,0.5,0.2c0,0,0.1,0.1,0.1,0.1c0,0,0,0.1,0,0.1
			c0,0-0.1,0-0.1,0c-0.1,0-0.2,0.1-0.4,0.2l-0.1,0.1l-0.1-0.1c0-0.1,0-0.2-0.1-0.3c-0.1-0.1-0.2-0.1-0.3-0.1c-0.1,0-0.3,0-0.4,0
			l-0.2,0c0.2,0.3,0.3,0.6,0.3,0.9c0,0.3-0.1,0.6-0.2,0.8c0,0-0.1,0-0.1,0l0,0l-0.1-0.1c0,0-0.1-0.1-0.1-0.1c0,0-0.1,0-0.1-0.1
			c0,0,0,0,0-0.1c0,0,0-0.1,0.1-0.1c0.1-0.2,0.2-0.4,0.2-0.5s0-0.4-0.1-0.5c-0.2,0.2-0.3,0.3-0.4,0.4C88.2,9,88.1,9.1,88,9.2
			c0,0-0.1,0.1-0.1,0.1c0,0-0.1,0-0.2-0.1l-0.2-0.2c-0.1-0.1-0.1-0.1,0-0.2c0.1-0.1,0.3-0.4,0.8-0.8c0.3-0.3,0.5-0.5,0.6-0.6
			c0.1-0.1,0.2-0.1,0.2,0l0.1,0.1l0.2,0.2c0,0,0,0,0,0c0,0,0,0.1,0,0.1c0,0-0.1,0.1-0.2,0.1C89.3,7.9,89.2,8,89.2,8
			C89.1,8.1,88.9,8.2,88.8,8.3z"/>
	</g>
	<g>
		<path class="st0" d="M90,9.9c0.3-0.2,0.6-0.4,1-0.4c0.3,0,0.6,0,0.7,0.1c0.1,0.1,0.1,0.3,0.1,0.6c0,0.3-0.2,0.6-0.5,0.9
			c-0.2,0.2-0.5,0.3-0.9,0.4c-0.4,0-0.6,0-0.8-0.1c-0.1-0.1-0.1-0.4-0.1-0.7C89.6,10.3,89.8,10.1,90,9.9z M91,9.7
			c-0.1,0-0.2,0-0.2,0c-0.1,0-0.1,0.1-0.2,0.1c-0.2,0.1-0.3,0.3-0.4,0.6c-0.1,0.3-0.1,0.6,0.1,0.8c0,0,0,0.1,0.1,0.1
			c0.1,0,0.1,0,0.2-0.1c0.1,0,0.1-0.1,0.2-0.1c0.2-0.2,0.3-0.4,0.4-0.6C91.2,10.2,91.1,9.9,91,9.7z"/>
	</g>
	<g>
		<path class="st0" d="M92.7,11.3l0.7,1c0.1,0.1,0.2,0.2,0.2,0.3c0,0.1,0,0.2-0.1,0.2c-0.2,0.1-0.3,0.1-0.5,0
			c-0.1-0.1-0.3-0.2-0.6-0.4l0,0c0.1,0.3,0.2,0.5,0.2,0.7c0,0.3-0.1,0.6-0.3,0.7c-0.1,0.1-0.2,0.1-0.3,0.1c-0.1,0-0.1-0.1-0.2-0.2
			l-0.9-1.2c0-0.1,0-0.1,0-0.2c0.1-0.1,0.3-0.2,0.6-0.4c0.6-0.4,0.9-0.6,1-0.7C92.6,11.3,92.7,11.3,92.7,11.3z M91.2,12.9l0.2,0.3
			c0.1,0.1,0.2,0.2,0.2,0.3c0.1,0,0.2,0,0.3,0c0.1-0.1,0.2-0.2,0.3-0.4c0.1-0.2,0-0.4-0.1-0.6l-0.3,0.2L91.2,12.9z M92.2,12.2
			c0.1,0.1,0.2,0.2,0.4,0.3c0.1,0,0.3,0,0.4-0.1c0.1,0,0.1-0.1,0.1-0.2c0-0.1,0-0.1-0.1-0.2c0,0,0-0.1-0.1-0.1c0,0,0-0.1-0.1-0.1
			C92.6,11.9,92.4,12,92.2,12.2z"/>
	</g>
	<g>
		<path class="st0" d="M93.1,14.2c0.3-0.2,0.7-0.3,1.1-0.2c0.3,0,0.5,0.1,0.6,0.3c0.1,0.1,0.1,0.3,0,0.6c-0.1,0.3-0.3,0.6-0.6,0.8
			c-0.3,0.1-0.6,0.2-1,0.2c-0.4,0-0.6-0.1-0.7-0.3c-0.1-0.2-0.1-0.4,0-0.7C92.7,14.6,92.9,14.3,93.1,14.2z M94.1,14.2
			c-0.1,0-0.2,0-0.2,0c-0.1,0-0.1,0-0.2,0.1c-0.2,0.1-0.4,0.3-0.5,0.5c-0.2,0.3-0.2,0.5,0,0.8c0,0,0,0.1,0.1,0.1c0.1,0,0.1,0,0.2,0
			c0.1,0,0.1,0,0.2-0.1c0.2-0.1,0.4-0.3,0.5-0.6C94.2,14.7,94.2,14.4,94.1,14.2z"/>
	</g>
	<g>
		<path class="st0" d="M94.5,16.3l0.6,1.3l-0.3,0.1l-0.6-1.3L94.5,16.3z"/>
	</g>
	<g>
		<path class="st0" d="M96.7,19.2l-0.3-0.7c-0.3,0.1-0.6,0.1-0.8,0.2c-0.2,0.1-0.4,0.2-0.6,0.2c-0.2,0.1-0.3,0.2-0.5,0.2
			c-0.1,0-0.1,0-0.1,0c0,0-0.1-0.1-0.1-0.1l-0.1-0.3c0-0.1,0-0.2,0.1-0.2c0.1-0.1,0.5-0.2,1-0.4c0.4-0.2,0.7-0.2,0.8-0.2
			c0.1,0,0.2,0,0.2,0.1l0.5,1.5l0,0.1l0,0.1c0,0.1,0,0.1,0,0.1c0,0,0,0-0.1,0c-0.1,0-0.1,0-0.2,0c-0.2,0-0.3,0.1-0.3,0.1
			c-0.1,0-0.2,0-0.3,0.1c-0.2,0.1-0.4,0.1-0.5,0.2c-0.1,0.1-0.3,0.1-0.6,0.3c0,0-0.1,0-0.1,0c0,0-0.1-0.1-0.1-0.2l-0.1-0.3
			c0-0.1,0-0.2,0.1-0.2c0.1-0.1,0.5-0.2,1-0.4c0.2-0.1,0.3-0.1,0.4-0.1C96.4,19.3,96.5,19.3,96.7,19.2z"/>
	</g>
	<g>
		<path class="st0" d="M95.6,21.6l-0.2,0.1c0,0-0.2,0.1-0.3,0.1c-0.2,0.1-0.3,0.1-0.4,0.1C94.4,22,94.2,22,94.1,22
			c-0.1,0-0.2-0.1-0.2-0.2c0-0.1,0-0.1,0-0.1l0,0c0,0,0.1,0,0.1,0c0.1,0,0.1,0,0.1,0l0.1,0l0.1,0l0.1,0c0.1,0,0.1,0,0.2-0.1
			c0.1,0,0.1,0,0.2-0.1c0.3-0.1,0.5-0.2,0.7-0.3c0.1-0.1,0.3-0.1,0.4-0.1c0.4-0.1,0.7-0.1,1.1,0.1c0.3,0.1,0.5,0.3,0.5,0.4
			c0,0.2-0.1,0.4-0.3,0.6c-0.3,0.3-0.6,0.5-1,0.6c-0.3,0.1-0.5,0.1-0.7,0c-0.2-0.1-0.3-0.2-0.4-0.4c0-0.1,0-0.3,0-0.4
			C95.4,21.8,95.5,21.7,95.6,21.6z M97.2,21.3c-0.1,0-0.3-0.1-0.4-0.1c-0.1,0-0.3,0-0.4,0.1c-0.3,0.1-0.5,0.2-0.7,0.4
			c-0.1,0.2-0.2,0.3-0.2,0.4c0,0.1,0.1,0.1,0.1,0.1c0.1,0,0.2,0.1,0.3,0l0.2,0c0.2,0,0.4-0.2,0.6-0.4C97,21.7,97.2,21.5,97.2,21.3z"
			/>
	</g>
	<g>
		<path class="st0" d="M98.1,24.2l0.1,0.5c0,0,0,0.1,0,0.1c0,0-0.1,0-0.1,0c0,0-0.1,0-0.1,0.1l-0.3,0.1L97.6,25
			c-0.4,0.2-0.8,0.3-1,0.5c-0.2,0.1-0.3,0.2-0.5,0.3c0,0,0,0-0.1-0.1L96,25.2c0,0,0,0,0.1-0.1c0,0,0.1,0,0.1,0
			c0.1,0,0.1-0.1,0.2-0.1l0.2-0.1l0.2-0.1c-0.3,0-0.4-0.1-0.6-0.2c-0.2-0.1-0.3-0.3-0.3-0.5c0-0.2,0-0.3,0.2-0.5
			c0.1-0.1,0.2-0.1,0.4-0.2c0.2,0,0.4,0,0.6,0.1c0.1,0,0.3,0.1,0.5,0.3c0,0,0.1,0.1,0.3,0.2c0.1,0,0.1,0.1,0.2,0.1c0,0,0,0,0.1,0
			c0,0,0.1,0,0.1,0C98,24.1,98.1,24.1,98.1,24.2C98.1,24.1,98.1,24.1,98.1,24.2z M97.7,24.3c-0.2-0.1-0.4-0.2-0.5-0.3
			C96.9,24,96.8,24,96.7,24c-0.1,0-0.2,0.1-0.2,0.1c-0.1,0.1-0.1,0.1-0.1,0.2c0,0.1,0.1,0.2,0.2,0.3c0.1,0.1,0.2,0.1,0.3,0.1
			c0.1,0,0.1,0,0.2-0.1c0.1,0,0.1-0.1,0.2-0.1l0.2-0.1L97.7,24.3z"/>
	</g>
	<g>
		<path class="st0" d="M97.4,26.8L97.4,26.8c0.4,0.2,0.7,0.4,0.9,0.6c0.2,0.2,0.2,0.3,0.3,0.5c0,0.1,0,0.1,0,0.2s0,0.1-0.1,0.1
			c0,0-0.1,0-0.1,0C98.3,28,98.2,28,98,28l-0.1,0l0-0.1c0.1-0.1,0.1-0.1,0.1-0.2c0-0.1-0.1-0.2-0.2-0.3c-0.1-0.1-0.2-0.2-0.3-0.3
			L97.4,27c-0.1,0.3-0.2,0.6-0.4,0.8c-0.2,0.3-0.5,0.4-0.7,0.4c0,0-0.1,0-0.1-0.1l0-0.1l0-0.2c0-0.1,0-0.1,0-0.2c0,0,0-0.1,0-0.1
			c0,0,0-0.1,0-0.1c0,0,0.1,0,0.2-0.1c0.2,0,0.4-0.1,0.5-0.3c0.1-0.1,0.2-0.3,0.3-0.5c-0.2,0-0.4,0-0.5,0c-0.1,0-0.3,0-0.4,0.1
			c-0.1,0-0.1,0-0.1,0c0,0,0-0.1-0.1-0.2l0-0.2c0-0.1,0.1-0.1,0.2-0.2c0.1,0,0.5-0.1,1.1-0.1c0.4,0,0.7,0,0.8,0
			c0.1,0,0.2,0.1,0.2,0.1l0,0.1l0,0.2c0,0,0,0,0,0.1c0,0,0,0.1-0.1,0.1c0,0-0.1,0-0.2,0c-0.1,0-0.2,0-0.3,0
			C97.8,26.8,97.6,26.8,97.4,26.8z"/>
	</g>
	<g>
		<path class="st0" d="M97.6,31.3l0.1-0.3c0.1,0,0.1,0,0.2,0.1s0.1,0,0.1,0c0.2,0,0.3-0.1,0.4-0.2c0-0.1,0.1-0.2,0.1-0.4l0-0.1
			l-0.5,0l-0.3,0c-0.3,0-0.5,0-0.7,0c-0.2,0-0.4,0-0.5,0c0,0-0.1,0-0.1,0c0,0,0-0.1,0-0.2l0-0.3c0-0.1,0-0.1,0.1-0.1
			c0.1,0,0.2,0,0.5,0l0.3,0l0.2,0l0.6,0l0.5,0l0-0.1c0-0.1,0-0.3,0-0.3c-0.1-0.2-0.2-0.2-0.4-0.2c0,0-0.1,0-0.1,0
			c-0.1,0-0.1,0-0.1,0l0-0.3c0.1,0,0.2-0.1,0.3-0.1c0.1,0,0.2-0.1,0.3-0.2c0,0,0.1,0,0.1-0.1c0,0,0.1,0,0.1,0c0,0,0.1,0,0.1,0
			c0,0,0.1,0.1,0.1,0.1c0,0,0,0.1,0,0.1c0,0,0,0.1,0,0.2c0,0.1,0,0.2,0,0.3c0,0.1,0,0.2,0,0.3l0,0.9l0,0.2l0,0.1c0,0.1,0,0.3,0,0.4
			c0,0.1,0,0.1,0,0.2c0,0,0,0.1,0,0.1c0,0,0,0.1-0.1,0.1c0,0-0.1,0-0.1,0c0,0-0.1,0-0.1,0c0,0-0.1,0-0.1-0.1
			c-0.1-0.1-0.2-0.1-0.3-0.2C97.8,31.3,97.7,31.3,97.6,31.3z"/>
	</g>
	<g>
		<path class="st0" d="M97.4,32.8l0.4,0.9c0.2,0,0.3,0.1,0.4,0.1c0,0,0.1,0.1,0.1,0.1l-0.1,0.4c0,0,0,0.1-0.1,0.1l-0.2,0
			c-0.1,0-0.2-0.1-0.3-0.1c-0.1,0-0.2,0-0.4-0.1c-0.4-0.1-0.8-0.1-1.2-0.1c0,0-0.1,0-0.1,0c0,0,0-0.1,0-0.2l0-0.3
			c0-0.1,0.1-0.1,0.3-0.1c0.2,0,0.6,0,1.3,0.1l-0.4-0.9c-0.1,0-0.3,0-0.4,0c-0.1,0-0.3,0-0.6,0c0,0-0.1,0-0.1,0c0,0,0-0.1,0-0.2
			l0-0.3c0,0,0-0.1,0-0.1c0,0,0.1-0.1,0.2,0l0.3,0c0.1,0,0.3,0,0.4,0c0.2,0,0.3,0,0.4,0c0.4,0.1,0.7,0.1,0.8,0.1
			c0.1,0,0.1,0.1,0.1,0.2L98.4,33c0,0,0,0.1-0.1,0.1l-0.2,0c-0.1,0-0.2-0.1-0.3-0.1C97.7,32.9,97.6,32.8,97.4,32.8z"/>
	</g>
	<g>
		<path class="st0" d="M97.7,37c0,0,0,0.1-0.1,0.1c0,0,0,0.1-0.1,0.1c-0.1,0-0.2-0.1-0.3-0.1c-0.1,0-0.3-0.1-0.5-0.1
			c-0.3-0.1-0.5-0.1-0.7-0.1c-0.2,0-0.4,0-0.5-0.1c-0.1,0-0.1,0-0.1-0.1c0,0,0-0.1,0-0.2l0.1-0.3c0-0.1,0.1-0.1,0.2-0.1
			c0.1,0,0.4,0.1,1,0.2c0,0,0,0,0-0.1c0,0,0-0.1,0-0.1c0,0,0-0.1-0.1-0.2c0,0,0-0.1,0-0.1c0,0,0-0.1,0-0.2c0-0.1,0.2-0.2,0.5-0.3
			c0.2-0.1,0.5-0.1,0.8-0.1c0,0,0.1,0,0.1,0c0,0,0,0,0,0c0,0,0,0,0,0.1c0,0,0,0.1,0,0.1L98,35.7c0,0.1,0,0.1-0.1,0.1
			c0,0-0.1,0-0.2,0c-0.3,0-0.5,0-0.7,0.1c-0.1,0.1-0.2,0.1-0.2,0.2l0,0.1c0,0,0,0.1,0,0.1c0,0,0,0,0,0.1c0.4,0.1,0.7,0.2,0.8,0.2
			c0.1,0,0.1,0.1,0.1,0.2L97.7,37z"/>
	</g>
	<g>
		<path class="st0" d="M95.9,39.1l0.3-0.8c-0.1,0-0.1,0-0.2,0c-0.2-0.1-0.3-0.1-0.3-0.1c-0.1,0-0.1,0-0.2,0c-0.1,0-0.2,0-0.3-0.1
			C95.1,38,95,38,95,38c0,0,0-0.1,0-0.2l0.1-0.2c0-0.1,0.1-0.1,0.3-0.1c0.1,0,0.5,0.1,1,0.3c0.4,0.1,0.7,0.2,0.8,0.3
			c0.1,0.1,0.1,0.1,0.1,0.2l0,0.1l-0.1,0.2l0,0c0,0-0.1,0.1-0.1,0c-0.1,0-0.2-0.1-0.4-0.2c-0.1-0.1-0.2-0.1-0.4-0.1L96,39.1
			c0.4,0.1,0.7,0.2,0.8,0.3c0.1,0,0.1,0.1,0.1,0.2l0,0.1l0,0.1c0,0,0,0,0,0.1c0,0,0,0.1,0,0.1l0,0.1c0,0-0.1,0.1-0.1,0
			c0,0-0.1,0-0.1-0.1c0,0-0.1-0.1-0.2-0.1c-0.2-0.1-0.3-0.2-0.6-0.2c-0.3-0.1-0.5-0.1-0.6-0.2c-0.2,0-0.3-0.1-0.5-0.1
			c-0.1,0-0.1,0-0.1-0.1c0,0,0-0.1,0-0.2l0.1-0.2c0-0.1,0.1-0.1,0.2-0.1C95,38.8,95.4,38.9,95.9,39.1z"/>
	</g>
	<g>
		<path class="st0" d="M95.3,41.1l0.1,1c0.2,0.1,0.3,0.1,0.3,0.2c0,0,0,0.1,0,0.2l-0.2,0.4c0,0,0,0-0.1,0l-0.2-0.1
			c-0.1-0.1-0.2-0.1-0.3-0.2c-0.1,0-0.2-0.1-0.3-0.2c-0.4-0.2-0.8-0.3-1.1-0.4c0,0-0.1,0-0.1-0.1c0,0,0-0.1,0-0.2l0.1-0.3
			c0-0.1,0.1-0.1,0.3,0c0.2,0.1,0.6,0.2,1.3,0.5l-0.1-1c-0.1-0.1-0.3-0.1-0.4-0.2c-0.1,0-0.3-0.1-0.6-0.2c0,0-0.1,0-0.1-0.1
			c0,0,0-0.1,0-0.2l0.1-0.3c0,0,0-0.1,0-0.1c0,0,0.1,0,0.2,0l0.3,0.1c0.1,0,0.2,0.1,0.4,0.2c0.2,0.1,0.3,0.1,0.4,0.1
			c0.4,0.2,0.6,0.3,0.7,0.4c0.1,0.1,0.1,0.1,0.1,0.2l-0.2,0.4c0,0,0,0.1-0.1,0l-0.2-0.1c-0.1-0.1-0.2-0.1-0.3-0.2
			C95.5,41.2,95.4,41.1,95.3,41.1z"/>
	</g>
	<g>
		<path class="st0" d="M94,43.7l0,1c0.2,0.1,0.3,0.2,0.3,0.2c0,0,0,0.1,0,0.2l-0.2,0.4c0,0-0.1,0-0.1,0l-0.2-0.1
			c-0.1-0.1-0.2-0.2-0.3-0.2c-0.1,0-0.2-0.1-0.3-0.2c-0.4-0.2-0.7-0.4-1.1-0.5c0,0-0.1,0-0.1-0.1c0,0,0-0.1,0.1-0.2l0.1-0.3
			c0-0.1,0.1-0.1,0.3,0c0.2,0.1,0.6,0.3,1.2,0.6l0-1c-0.1-0.1-0.2-0.1-0.4-0.2c-0.1-0.1-0.3-0.1-0.5-0.2c0,0-0.1,0-0.1-0.1
			c0,0,0-0.1,0.1-0.2l0.1-0.3c0,0,0-0.1,0-0.1c0,0,0.1,0,0.2,0l0.3,0.1c0.1,0.1,0.2,0.1,0.4,0.2c0.2,0.1,0.3,0.1,0.3,0.2
			c0.4,0.2,0.6,0.4,0.7,0.4c0.1,0.1,0.1,0.1,0.1,0.2l-0.2,0.4c0,0-0.1,0-0.1,0l-0.2-0.1c-0.1-0.1-0.2-0.1-0.3-0.2
			C94.3,43.8,94.2,43.7,94,43.7z M95.2,45.4L95,45.5c-0.1-0.2-0.2-0.4-0.3-0.5c0-0.1,0-0.2,0-0.3c0-0.1,0.1-0.1,0.3-0.1
			c0.1,0,0.3,0,0.5,0.1l0.1,0l0,0.1c-0.1,0-0.2,0-0.3,0c-0.1,0-0.2,0.1-0.2,0.2C95.1,45.1,95.1,45.3,95.2,45.4L95.2,45.4z"/>
	</g>
	<g>
		<path class="st0" d="M90.7,48.2c-0.1-0.1-0.3-0.2-0.4-0.3c-0.1-0.1-0.2-0.1-0.4-0.2c0,0-0.1-0.1-0.1-0.1c0,0,0-0.1,0.1-0.2
			l0.2-0.2c0-0.1,0.1-0.1,0.2-0.1c0.1,0,0.2,0.1,0.4,0.3l0.3,0.3c0-0.1,0.1-0.2,0.1-0.3c0-0.2-0.1-0.4-0.3-0.7
			c0-0.1-0.1-0.1-0.1-0.1c0,0,0-0.1,0-0.1l0.1-0.1l0.1-0.1l0.1-0.1l0.1-0.1c0,0,0.1-0.1,0.1-0.1c0,0,0,0,0.1,0c0,0,0.1,0.1,0.1,0.2
			c0.1,0.2,0.2,0.4,0.2,0.6c0,0.3,0,0.6-0.2,0.8c0.2,0.1,0.5,0.1,0.6,0c0.1,0,0.2-0.1,0.3-0.2c0,0,0-0.1,0-0.1c0,0,0-0.1,0-0.1
			c0,0,0-0.1,0-0.1c0,0,0,0,0.1,0c0,0,0,0,0.1,0c0.1,0.1,0.2,0.1,0.2,0.2c0.1,0,0.1,0,0.2,0.1c0,0,0,0,0,0.1c0,0,0,0.1,0,0.1
			c-0.1,0.1-0.3,0.2-0.5,0.2c-0.3,0-0.7,0-1.1-0.1l0.3,0.2l0.2,0.1l0.1,0.1c0.1,0.1,0.2,0.2,0.2,0.2c0,0,0,0.1,0,0.1l-0.2,0.3
			c0,0.1-0.1,0.1-0.1,0c0,0-0.1-0.1-0.1-0.1c-0.1-0.1-0.1-0.1-0.2-0.2l-0.2-0.1L91,48.4l-0.2-0.1l0.1,0.2c0.1,0.3,0.2,0.6,0.2,0.8
			c0,0.3,0,0.5-0.1,0.6C91,50,90.9,50,90.9,49.9c0-0.1-0.1-0.1-0.1-0.2c0-0.1-0.1-0.1-0.2-0.2c0,0-0.1,0-0.1-0.1c0,0,0,0,0,0
			c0,0,0,0,0,0c0,0,0,0,0.1,0c0,0,0.1,0,0.1,0c0,0,0,0,0.1-0.1c0.1-0.1,0.1-0.2,0.1-0.3c0-0.2-0.1-0.3-0.2-0.6
			c-0.1,0.1-0.3,0.2-0.4,0.3c-0.1,0.1-0.3,0.1-0.4,0.1c-0.1,0-0.3,0-0.4,0c-0.2,0-0.3-0.1-0.3-0.1c0,0,0,0,0-0.1c0,0,0-0.1,0-0.1
			l0.1-0.1l0.1-0.1l0.1-0.2c0,0,0.1,0,0.1,0c0,0,0.1,0,0.1,0c0.3,0.1,0.6,0.2,0.7,0.1C90.5,48.3,90.6,48.3,90.7,48.2z"/>
	</g>
	<g>
		<path class="st0" d="M88.2,49.8L88.2,49.8L88,49.8c0.2,0.2,0.3,0.4,0.4,0.6c0.1,0.2,0.2,0.3,0.3,0.4c0.1,0.2,0.2,0.4,0.3,0.6
			c0.1,0.3,0,0.5-0.1,0.7c0,0.1-0.1,0.1-0.1,0.1c0,0-0.1,0-0.1,0c0,0,0-0.1-0.1-0.1c0,0,0-0.1,0-0.1c0,0-0.1-0.1-0.1-0.1l0,0
			l-0.1-0.1c0,0,0-0.1-0.1-0.1l0.1-0.1c0.1,0,0.1,0,0.2,0c0.1-0.1,0.1-0.2,0-0.4c-0.1-0.3-0.4-0.7-0.9-1.2c-0.2-0.2-0.4-0.4-0.5-0.5
			c-0.3-0.2-0.4-0.3-0.4-0.3c0,0,0-0.1,0-0.1c0-0.1,0.1-0.1,0.2-0.3c0,0,0.1,0,0.1,0c0.1,0.1,0.2,0.2,0.3,0.3
			c0.1,0.1,0.2,0.2,0.3,0.5l0.2,0.2l0.2-0.2c0.1-0.1,0.2-0.2,0.2-0.2c0,0,0.1-0.1,0.1-0.1c0,0,0,0,0.1,0c0,0,0,0,0,0l0.1,0.1
			c0.2,0.2,0.4,0.4,0.7,0.6c0.3,0.2,0.6,0.4,0.8,0.5c0.1,0,0.1,0.1,0.1,0.1c0,0,0,0,0.1,0c0,0,0,0,0,0.1c0,0-0.1,0.1-0.1,0.1
			c-0.1,0.1-0.1,0.1-0.2,0.1c0,0-0.1,0-0.1,0c0,0-0.1,0-0.2,0c-0.1,0-0.4-0.2-0.8-0.5C88.6,50,88.3,49.9,88.2,49.8z"/>
	</g>
	<g>
		<path class="st0" d="M86.6,51.4l-0.1-0.1c0,0-0.1-0.1-0.2-0.3c-0.1-0.1-0.2-0.2-0.3-0.3c-0.2-0.2-0.3-0.3-0.3-0.4
			c0-0.1,0-0.2,0.1-0.3c0,0,0.1-0.1,0.1,0l0,0c0,0,0,0,0.1,0.1c0,0,0.1,0.1,0.1,0.1l0.1,0.1l0.1,0.1l0.1,0.1c0,0,0.1,0.1,0.1,0.1
			c0,0.1,0.1,0.1,0.2,0.2c0.2,0.2,0.4,0.4,0.5,0.5c0.1,0.1,0.2,0.2,0.3,0.3c0.3,0.3,0.4,0.6,0.4,1c0,0.3-0.1,0.5-0.2,0.6
			c-0.1,0.1-0.4,0.1-0.7,0c-0.4-0.1-0.7-0.3-0.9-0.6c-0.2-0.2-0.3-0.4-0.3-0.7c0-0.2,0-0.4,0.2-0.5c0.1-0.1,0.2-0.1,0.4-0.1
			C86.3,51.4,86.5,51.4,86.6,51.4z M87.5,52.8c0-0.1,0-0.3-0.1-0.4c-0.1-0.1-0.1-0.2-0.2-0.4c-0.2-0.2-0.4-0.4-0.6-0.4
			c-0.2-0.1-0.4,0-0.5,0c0,0-0.1,0.1-0.1,0.2c0,0.1,0,0.2,0.1,0.3l0.1,0.1c0.1,0.1,0.3,0.3,0.6,0.4C87.1,52.8,87.3,52.8,87.5,52.8z"
			/>
	</g>
	<g>
		<path class="st0" d="M84.3,54.2l0.7-0.5c0-0.1-0.1-0.1-0.1-0.1c-0.1-0.2-0.2-0.3-0.2-0.3c0,0-0.1-0.1-0.1-0.2
			c-0.1-0.1-0.1-0.1-0.2-0.2c0,0,0-0.1,0-0.1c0,0,0.1-0.1,0.2-0.2l0.2-0.1c0.1,0,0.1,0,0.2,0.1c0.1,0.1,0.3,0.4,0.6,0.9
			c0.3,0.4,0.4,0.6,0.4,0.7c0,0.1,0,0.2,0,0.2l-0.1,0.1l-0.2,0.1l0,0c0,0-0.1,0-0.1,0c0-0.1-0.1-0.2-0.2-0.4
			c-0.1-0.1-0.1-0.2-0.2-0.3l-0.7,0.4c0.2,0.4,0.4,0.6,0.4,0.7c0,0.1,0,0.1,0,0.2l-0.1,0.1l-0.1,0c0,0,0,0-0.1,0c0,0,0,0-0.1,0l0,0
			c0,0-0.1,0-0.1,0c0,0,0-0.1,0-0.1c0-0.1,0-0.1-0.1-0.2c-0.1-0.2-0.2-0.3-0.3-0.5c-0.2-0.2-0.3-0.4-0.4-0.5
			c-0.1-0.1-0.2-0.3-0.3-0.4c0-0.1,0-0.1,0-0.1c0,0,0.1-0.1,0.2-0.1l0.2-0.1c0.1-0.1,0.2,0,0.2,0.1C83.8,53.5,84,53.7,84.3,54.2z"/>
	</g>
	<g>
		<path class="st0" d="M82.8,56.4l-0.4,0.2c0,0-0.1,0-0.1,0c0,0,0-0.1,0-0.1c0,0,0-0.1-0.1-0.1L82,56.3l-0.1-0.1
			c-0.3-0.3-0.6-0.6-0.8-0.8c-0.1-0.1-0.3-0.2-0.4-0.3c0,0,0-0.1,0.1-0.1l0.4-0.2c0,0,0,0,0.1,0c0,0,0.1,0.1,0.1,0.1
			c0,0,0.1,0.1,0.1,0.1l0.1,0.1l0.2,0.2c-0.1-0.2-0.1-0.5,0-0.6c0-0.2,0.1-0.4,0.3-0.5c0.2-0.1,0.3-0.1,0.5,0
			c0.1,0.1,0.2,0.2,0.3,0.3c0.1,0.1,0.1,0.3,0.1,0.6c0,0.1,0,0.3-0.1,0.6c0,0,0,0.1-0.1,0.3c0,0.1,0,0.1,0,0.2c0,0,0,0,0,0.1
			c0,0,0,0,0.1,0.1C82.9,56.3,82.9,56.3,82.8,56.4C82.9,56.4,82.9,56.4,82.8,56.4z M82.6,56c0-0.2,0.1-0.4,0.1-0.6
			c0-0.2,0-0.3-0.1-0.4c0-0.1-0.1-0.1-0.2-0.2c-0.1,0-0.2,0-0.2,0C82,54.9,82,55,81.9,55.1c0,0.1,0,0.2,0,0.3c0,0,0.1,0.1,0.1,0.1
			c0.1,0.1,0.1,0.1,0.1,0.1l0.2,0.2L82.6,56z"/>
	</g>
	<g>
		<path class="st0" d="M80.2,57.3c0-0.1,0-0.1,0-0.2c0-0.1,0-0.1,0-0.2c0-0.3,0-0.5,0-0.6c0-0.1-0.1-0.3-0.1-0.4
			c0-0.1-0.1-0.1-0.1-0.2c0,0-0.1-0.1-0.1-0.1c0,0-0.1-0.1-0.1-0.1c0,0,0,0-0.1,0c0,0,0-0.1,0.1-0.1l0.2-0.1l0.2-0.1
			c0.1,0,0.1,0,0.1,0c0,0,0.1,0,0.1,0.1c0.1,0.2,0.1,0.5,0.1,0.8c0,0.1,0,0.3-0.1,0.5c0,0.1,0,0.2-0.1,0.4c0,0.2,0,0.3,0,0.4
			c0,0,0,0.1,0.1,0.1c0,0,0,0,0,0.1c0,0,0,0,0,0c0,0,0,0-0.1,0L80,57.8c-0.1,0-0.1,0-0.1,0c0,0,0,0-0.1-0.1c0-0.1-0.1-0.2-0.3-0.4
			c-0.1-0.1-0.2-0.3-0.3-0.3c-0.3-0.3-0.4-0.5-0.6-0.6c-0.1-0.1-0.2-0.2-0.3-0.3c0,0,0-0.1,0-0.1c0,0,0,0,0,0l0.2-0.1l0.2-0.1
			c0.1,0,0.1,0,0.2,0c0.1,0.1,0.3,0.3,0.6,0.6l0.2,0.2c0.1,0.1,0.1,0.1,0.1,0.1c0,0,0.1,0.1,0.1,0.2l0.1,0.1L80.2,57.3z"/>
	</g>
</g>
<g>
	<g>
		<path class="st0" d="M4.6,49.6H4.2c-0.5,0-0.9,0.1-1.2,0.3c-0.3,0.2-0.5,0.6-0.8,1.1l-0.5-0.2l0.9-2h0.4l0,0.3H7l0-0.3h0.4l0.9,2
			L7.8,51c-0.2-0.5-0.5-0.9-0.8-1.1c-0.3-0.2-0.7-0.3-1.1-0.3H5.6v3.6c0,0.4,0,0.6,0,0.7c0,0.1,0.1,0.2,0.2,0.2
			c0.1,0.1,0.3,0.1,0.6,0.1h0.1v0.5h-3v-0.5h0.1c0.3,0,0.5,0,0.6-0.1c0.1,0,0.2-0.1,0.2-0.2c0-0.1,0.1-0.3,0.1-0.7V49.6z"/>
		<path class="st0" d="M6.9,55H3.3v-1.1h0.5c0.4,0,0.5,0,0.5,0c0,0,0,0,0,0c0,0,0-0.1,0-0.6l0-3.3c-0.4,0-0.8,0.1-1,0.3
			c-0.2,0.2-0.5,0.5-0.7,0.9l-0.1,0.3l-1.1-0.5l1.1-2.5h0.9l0,0.3l3.3,0l0-0.3h0.9l1.1,2.5l-1.1,0.5l-0.1-0.3
			c-0.2-0.5-0.4-0.8-0.7-1c-0.2-0.2-0.5-0.2-1-0.2h0v3.3c0,0.5,0,0.6,0,0.6c0.1,0,0.2,0.1,0.5,0.1h0.5V55z M4.5,54.4h1.2
			c-0.2-0.1-0.3-0.3-0.3-0.4c0-0.1-0.1-0.3-0.1-0.8v-3.9H4.9v3.9c0,0.5,0,0.7-0.1,0.8C4.8,54.2,4.6,54.3,4.5,54.4z M6.4,49.3
			c0.3,0.1,0.6,0.2,0.9,0.3c0.2,0.1,0.4,0.3,0.5,0.6l-0.5-1.1l0,0.2H6.4z M2.9,49.2l-0.5,1.1c0.2-0.2,0.3-0.4,0.5-0.5
			c0.2-0.2,0.5-0.3,0.9-0.4H2.9L2.9,49.2z"/>
	</g>
	<g>
		<path class="st0" d="M13.5,51.3l0-0.6c0-0.4-0.1-0.7-0.4-0.9c-0.2-0.2-0.6-0.3-1-0.3c-0.2,0-0.4,0-0.6,0.1
			c-0.2,0.1-0.3,0.1-0.4,0.2c-0.1,0.1-0.2,0.2-0.2,0.3c0,0-0.1,0.2-0.1,0.5c-0.1,0.4-0.3,0.5-0.5,0.5c-0.2,0-0.3-0.1-0.4-0.2
			c-0.1-0.1-0.1-0.2-0.1-0.4c0-0.3,0.1-0.5,0.3-0.8c0.2-0.2,0.5-0.5,0.9-0.6c0.4-0.2,0.9-0.2,1.4-0.2c0.5,0,0.9,0.1,1.3,0.2
			c0.4,0.2,0.6,0.4,0.8,0.7c0.1,0.2,0.2,0.6,0.2,1.1v2.3c0,0.3,0,0.5,0,0.6c0,0.2,0.1,0.3,0.2,0.4c0.1,0.1,0.2,0.1,0.4,0.1
			c0.2,0,0.4,0,0.6-0.1v0.5c-0.3,0.1-0.6,0.1-0.9,0.1c-0.3,0-0.5,0-0.7-0.1c-0.2-0.1-0.3-0.2-0.5-0.3c-0.1-0.2-0.2-0.3-0.2-0.5
			c-0.5,0.4-0.9,0.6-1.3,0.8c-0.4,0.1-0.8,0.2-1.2,0.2c-0.5,0-1-0.1-1.3-0.4c-0.3-0.3-0.5-0.6-0.5-1c0-0.2,0.1-0.5,0.2-0.7
			c0.1-0.2,0.3-0.4,0.6-0.6c0.3-0.2,0.6-0.3,1.2-0.4C11.8,51.5,12.6,51.4,13.5,51.3z M13.5,51.8c-0.9,0.1-1.5,0.2-1.7,0.3
			c-0.4,0.1-0.7,0.2-0.9,0.3c-0.2,0.1-0.3,0.2-0.4,0.4c-0.1,0.1-0.1,0.3-0.1,0.4c0,0.2,0,0.3,0.1,0.4c0.1,0.1,0.2,0.3,0.4,0.3
			c0.2,0.1,0.3,0.1,0.5,0.1c0.3,0,0.5-0.1,0.9-0.2c0.3-0.1,0.7-0.4,1.2-0.7V51.8z"/>
		<path class="st0" d="M15,55.1c-0.3,0-0.6,0-0.8-0.1c-0.2-0.1-0.4-0.2-0.6-0.4c-0.1-0.1-0.1-0.1-0.2-0.2c-0.4,0.3-0.7,0.4-1,0.6
			c-0.4,0.2-0.8,0.2-1.3,0.2c-0.6,0-1.1-0.2-1.5-0.5C9.2,54.2,9,53.8,9,53.3c0-0.3,0.1-0.6,0.2-0.8c0.1-0.3,0.4-0.5,0.7-0.7
			c0.3-0.2,0.7-0.3,1.3-0.5c0.5-0.1,1.2-0.2,2-0.3l0-0.4c0-0.3-0.1-0.6-0.2-0.7c-0.2-0.1-0.5-0.2-0.8-0.2c-0.2,0-0.3,0-0.5,0.1
			c-0.1,0-0.2,0.1-0.3,0.2c-0.1,0.1-0.1,0.1-0.1,0.2c0,0.1-0.1,0.2-0.1,0.5c-0.2,0.7-0.6,0.8-0.8,0.8c-0.2,0-0.5-0.1-0.6-0.3
			c-0.1-0.2-0.2-0.4-0.2-0.6c0-0.3,0.1-0.6,0.4-0.9c0.2-0.3,0.6-0.5,1-0.7c0.4-0.2,0.9-0.3,1.5-0.3c0.5,0,1,0.1,1.4,0.3
			c0.4,0.2,0.7,0.4,0.9,0.8c0.1,0.3,0.2,0.6,0.2,1.2v2.3c0,0.4,0,0.5,0,0.6c0,0.1,0.1,0.2,0.1,0.2c0.1,0.1,0.4,0.1,0.8,0l0.4-0.1
			v1.2L16,55C15.6,55.1,15.3,55.1,15,55.1z M11,52c-0.3,0.1-0.5,0.2-0.7,0.3c-0.2,0.1-0.4,0.3-0.5,0.5c-0.1,0.2-0.1,0.3-0.1,0.5
			c0,0.3,0.1,0.6,0.4,0.8c0.3,0.2,0.6,0.4,1.1,0.4c0.3,0,0.6,0,0.8-0.1c-0.5,0.1-0.9,0.1-1.2-0.1c-0.2-0.1-0.4-0.3-0.5-0.5
			c-0.1-0.2-0.2-0.4-0.2-0.6c0-0.2,0.1-0.4,0.2-0.6c0.1-0.2,0.3-0.3,0.5-0.5C10.8,52.1,10.9,52.1,11,52z M13.8,53.4l0.1,0.4
			c0,0.2,0.1,0.3,0.2,0.4c0.1,0.1,0.2,0.2,0.3,0.3c0.1,0,0.2,0.1,0.3,0.1c-0.1,0-0.1-0.1-0.1-0.1c-0.2-0.1-0.3-0.3-0.3-0.5
			c0-0.1,0-0.2,0-0.7v-2.3c0-0.6-0.1-0.8-0.1-0.9c-0.1-0.2-0.3-0.4-0.6-0.5c-0.2-0.1-0.4-0.1-0.6-0.2c0.2,0.1,0.3,0.1,0.5,0.2
			c0.3,0.2,0.5,0.6,0.5,1.2L13.8,53.4z M13.2,52.2c-0.7,0.1-1.1,0.2-1.3,0.2c-0.5,0.1-0.7,0.2-0.8,0.3c-0.1,0.1-0.2,0.2-0.3,0.3
			c-0.1,0.1-0.1,0.2-0.1,0.3c0,0.1,0,0.2,0.1,0.3c0.1,0.1,0.1,0.2,0.3,0.2c0.3,0.2,0.7,0.1,1.1-0.1c0.3-0.1,0.6-0.3,1-0.6V52.2z
			 M11.2,49.4c-0.1,0-0.1,0-0.1,0.1c-0.3,0.1-0.6,0.3-0.8,0.5c-0.2,0.2-0.2,0.4-0.2,0.6c0,0.1,0,0.2,0.1,0.2c0,0,0.1,0.1,0.2,0.1
			c0.1,0,0.2,0,0.2-0.3c0.1-0.4,0.1-0.5,0.2-0.5c0.1-0.2,0.2-0.3,0.3-0.4C11,49.5,11.1,49.4,11.2,49.4z"/>
	</g>
	<g>
		<path class="st0" d="M25.8,46.4c0.7,0,1.4,0.2,2,0.5c0.7,0.4,1.2,0.9,1.5,1.5c0.4,0.6,0.5,1.3,0.5,2.2c0,1.3-0.4,2.3-1.2,3.1
			c-0.8,0.8-1.8,1.2-3,1.2c-1.4,0-2.4-0.5-3.2-1.4c-0.6-0.8-1-1.7-1-2.8c0-0.8,0.2-1.5,0.5-2.2c0.4-0.6,0.9-1.1,1.6-1.5
			S25,46.4,25.8,46.4z M25.8,47c-0.6,0-1.1,0.1-1.6,0.4c-0.4,0.3-0.8,0.7-1.1,1.2c-0.3,0.5-0.4,1.2-0.4,2c0,0.8,0.1,1.4,0.4,1.9
			c0.3,0.5,0.6,0.9,1.1,1.2c0.4,0.3,0.9,0.4,1.5,0.4c0.5,0,1-0.1,1.4-0.4c0.4-0.3,0.8-0.7,1-1.3c0.3-0.6,0.4-1.3,0.4-2
			c0-0.7-0.1-1.4-0.4-2c-0.2-0.5-0.5-0.9-0.9-1.2C26.9,47.1,26.4,47,25.8,47z"/>
		<path class="st0" d="M25.7,55.2c-1.4,0-2.6-0.5-3.5-1.5c-0.7-0.8-1-1.8-1-3c0-0.9,0.2-1.6,0.6-2.3c0.4-0.7,1-1.2,1.7-1.6
			c0.7-0.4,1.5-0.6,2.4-0.6c0.8,0,1.5,0.2,2.2,0.6c0.7,0.4,1.2,1,1.6,1.6c0.4,0.7,0.6,1.4,0.6,2.3c0,1.3-0.4,2.5-1.3,3.3
			C28.1,54.7,27,55.2,25.7,55.2z M25.8,46.7c-0.7,0-1.4,0.2-2.1,0.5c-0.6,0.3-1.1,0.8-1.4,1.4c-0.3,0.6-0.5,1.3-0.5,2
			c0,1,0.3,1.9,0.9,2.6c0.6,0.7,1.3,1.1,2.2,1.3c-0.3-0.1-0.6-0.2-0.9-0.4c-0.5-0.3-0.9-0.8-1.2-1.3c-0.3-0.6-0.4-1.3-0.4-2.1
			c0-0.8,0.1-1.6,0.4-2.2c0.3-0.6,0.7-1.1,1.2-1.4C24.6,46.8,25.2,46.7,25.8,46.7c0.6,0,1.2,0.2,1.6,0.4c0.4,0.3,0.8,0.7,1.1,1.3
			c0.3,0.6,0.4,1.4,0.4,2.1c0,0.8-0.1,1.5-0.4,2.1c-0.3,0.6-0.7,1.1-1.2,1.4c-0.3,0.2-0.5,0.3-0.9,0.4c0.8-0.1,1.5-0.5,2-1
			c0.7-0.7,1.1-1.7,1.1-2.9c0-0.8-0.2-1.4-0.5-2c-0.3-0.6-0.8-1-1.4-1.4C27.2,46.8,26.5,46.7,25.8,46.7z M25.8,47.3
			c-0.5,0-1,0.1-1.4,0.4c-0.4,0.2-0.7,0.6-0.9,1.1c-0.2,0.5-0.4,1.1-0.4,1.9c0,0.7,0.1,1.3,0.4,1.8c0.2,0.5,0.6,0.8,0.9,1.1
			c0.4,0.3,0.8,0.4,1.3,0.4c0.5,0,0.9-0.1,1.3-0.4c0.4-0.2,0.7-0.6,0.9-1.2c0.3-0.5,0.4-1.2,0.4-1.8c0-0.7-0.1-1.3-0.4-1.9
			c-0.2-0.5-0.5-0.8-0.8-1C26.8,47.4,26.3,47.3,25.8,47.3z"/>
	</g>
	<g>
		<path class="st0" d="M38.2,46.5h0.4l0.7,2.7l-0.5,0.2c-0.3-0.6-0.5-1.1-0.7-1.3c-0.3-0.3-0.6-0.6-0.9-0.8S36.5,47,36,47
			c-0.5,0-1,0.1-1.5,0.4c-0.4,0.3-0.8,0.7-1.1,1.2c-0.3,0.5-0.4,1.2-0.4,1.9c0,0.7,0.1,1.3,0.4,1.9c0.3,0.6,0.7,1,1.1,1.3
			c0.5,0.3,1,0.4,1.5,0.4c0.5,0,1.1-0.1,1.6-0.4c0.5-0.3,1-0.7,1.4-1.3l0.5,0.3c-0.2,0.4-0.5,0.7-0.8,0.9c-0.4,0.4-0.9,0.7-1.4,0.9
			c-0.5,0.2-1,0.3-1.6,0.3c-1.3,0-2.3-0.5-3.1-1.4c-0.7-0.8-1-1.7-1-2.8c0-0.8,0.2-1.5,0.5-2.2c0.4-0.6,0.9-1.2,1.5-1.5
			c0.6-0.4,1.3-0.6,2.1-0.6c0.4,0,0.8,0.1,1.1,0.2c0.3,0.1,0.7,0.3,1,0.5L38.2,46.5z"/>
		<path class="st0" d="M35.9,55.2c-1.4,0-2.5-0.5-3.3-1.5c-0.7-0.8-1.1-1.8-1.1-3c0-0.8,0.2-1.6,0.6-2.3c0.4-0.7,0.9-1.2,1.6-1.7
			c0.7-0.4,1.4-0.6,2.2-0.6c0.4,0,0.8,0.1,1.2,0.2c0.3,0.1,0.5,0.2,0.8,0.3l0.1-0.4h0.9l0.9,3.3l-1.1,0.3l-0.1-0.2
			c-0.4-0.8-0.5-1.1-0.6-1.2c-0.2-0.3-0.5-0.6-0.8-0.7c-0.3-0.2-0.7-0.3-1.1-0.3c-0.5,0-0.9,0.1-1.3,0.4c-0.4,0.3-0.7,0.6-1,1.1
			c-0.3,0.5-0.4,1.1-0.4,1.7c0,0.7,0.1,1.2,0.4,1.7c0.3,0.5,0.6,0.9,1,1.2c0.8,0.5,1.8,0.6,2.8,0c0.5-0.3,0.9-0.7,1.3-1.2l0.2-0.2
			l1,0.7l-0.2,0.3c-0.3,0.4-0.5,0.7-0.8,1c-0.5,0.4-1,0.7-1.5,0.9C37.1,55,36.5,55.2,35.9,55.2z M35.9,46.7c-0.7,0-1.3,0.2-1.9,0.5
			c-0.6,0.4-1.1,0.8-1.4,1.4c-0.3,0.6-0.5,1.3-0.5,2c0,1,0.3,1.9,0.9,2.6c0.7,0.9,1.7,1.3,2.9,1.3c0.5,0,1-0.1,1.5-0.3
			c0.4-0.2,0.8-0.4,1.2-0.8c-0.2,0.2-0.4,0.3-0.7,0.4c-1.2,0.7-2.4,0.6-3.5,0c-0.5-0.3-0.9-0.8-1.2-1.4c-0.3-0.6-0.5-1.3-0.5-2
			c0-0.7,0.2-1.4,0.4-2c0.3-0.6,0.7-1.1,1.2-1.4c0.5-0.3,1.1-0.5,1.8-0.5C36.1,46.7,36,46.7,35.9,46.7z M37.3,47
			C37.3,47,37.4,47,37.3,47c0.5,0.3,0.9,0.6,1.1,1c0.1,0.2,0.3,0.6,0.6,1.1l-0.6-2.2l-0.2,0.7l-0.3-0.2C37.7,47.2,37.5,47.1,37.3,47
			z"/>
	</g>
	<g>
		<path class="st0" d="M41.1,46.5H45c1,0,1.6,0,2,0.1c0.5,0.1,0.9,0.4,1.2,0.7c0.3,0.3,0.5,0.7,0.5,1.2c0,0.3-0.1,0.6-0.2,0.9
			c-0.2,0.3-0.4,0.5-0.7,0.7c-0.2,0.1-0.5,0.2-0.8,0.3c0.4,0.1,0.8,0.2,1,0.3c0.3,0.2,0.6,0.4,0.8,0.7c0.2,0.3,0.3,0.7,0.3,1
			c0,0.4-0.1,0.7-0.3,1c-0.2,0.3-0.5,0.6-0.8,0.8c-0.4,0.2-0.8,0.3-1.2,0.4c-0.5,0.1-0.9,0.1-1.4,0.1h-4.1v-0.5h0.3
			c0.3,0,0.4,0,0.5-0.1c0.1-0.1,0.2-0.3,0.2-0.6v-5.7c0-0.3,0-0.5-0.1-0.6c0-0.1-0.1-0.2-0.2-0.2c-0.1,0-0.3-0.1-0.5-0.1h-0.3V46.5z
			 M43.3,47.2v3h1.5c0.7,0,1.2,0,1.4-0.1c0.4-0.1,0.7-0.3,0.9-0.5c0.2-0.3,0.3-0.6,0.3-1c0-0.3-0.1-0.6-0.3-0.8
			c-0.2-0.2-0.5-0.4-0.8-0.5c-0.2-0.1-0.7-0.1-1.3-0.1H43.3z M43.3,50.7v2.7c0,0.3,0,0.4,0,0.5c0,0.1,0.1,0.1,0.2,0.1
			c0.1,0,0.3,0,0.6,0h0.8c0.8,0,1.4,0,1.7-0.1s0.6-0.3,0.9-0.6c0.2-0.3,0.4-0.6,0.4-1c0-0.3-0.1-0.6-0.3-0.9
			c-0.2-0.3-0.5-0.4-0.8-0.6c-0.3-0.1-1-0.2-1.8-0.2H43.3z"/>
		<path class="st0" d="M45.2,55h-4.4v-1.1h0.6c0.3,0,0.3-0.1,0.3-0.1c0.1-0.1,0.1-0.2,0.1-0.3v-5.7c0-0.3,0-0.4,0-0.4
			c0,0,0-0.1,0-0.1c0,0-0.1,0-0.4,0h-0.6v-1.1H45c1,0,1.6,0,2,0.1c0.6,0.1,1,0.4,1.4,0.8c0.4,0.4,0.5,0.9,0.5,1.4
			c0,0.4-0.1,0.7-0.3,1.1c-0.2,0.3-0.4,0.6-0.8,0.8c0,0,0.1,0,0.1,0.1c0.4,0.2,0.7,0.5,0.9,0.8c0.2,0.4,0.3,0.8,0.3,1.2
			c0,0.4-0.1,0.8-0.3,1.2c-0.2,0.4-0.5,0.7-0.9,0.9c-0.4,0.2-0.8,0.4-1.3,0.4C46.2,55,45.7,55,45.2,55z M42,54.4h3.2
			c0.5,0,1,0,1.4-0.1c0.4-0.1,0.8-0.2,1.1-0.4c0.3-0.2,0.5-0.4,0.7-0.7c0.2-0.3,0.2-0.6,0.2-0.9c0-0.3-0.1-0.6-0.2-0.9
			c-0.2-0.3-0.4-0.5-0.7-0.6c-0.2-0.1-0.4-0.2-0.7-0.2c0.3,0.1,0.5,0.3,0.7,0.6c0.2,0.3,0.4,0.7,0.4,1.1c0,0.5-0.1,0.9-0.4,1.2
			c-0.3,0.3-0.6,0.6-1,0.7c-0.4,0.1-0.9,0.1-1.8,0.1H44c-0.4,0-0.6,0-0.7,0c-0.2-0.1-0.3-0.2-0.4-0.3c0-0.1-0.1-0.2-0.1-0.6v-6.6
			h2.1c0.7,0,1.2,0,1.4,0.1c0.4,0.1,0.7,0.3,0.9,0.6c0.2,0.3,0.4,0.6,0.4,1c0,0.5-0.1,0.9-0.4,1.2c-0.1,0.1-0.2,0.2-0.4,0.3
			c0.2-0.1,0.4-0.1,0.6-0.2c0.3-0.2,0.5-0.4,0.6-0.6c0.1-0.2,0.2-0.5,0.2-0.7c0-0.4-0.1-0.7-0.4-1c-0.3-0.3-0.6-0.5-1.1-0.6
			c-0.3-0.1-1-0.1-1.9-0.1h-2.9c0.1,0.1,0.2,0.2,0.3,0.3c0.1,0.1,0.1,0.3,0.1,0.7v5.7C42.5,53.9,42.4,54.2,42,54.4
			C42.1,54.4,42.1,54.4,42,54.4z M43.6,53.7c0,0,0.2,0,0.5,0h0.8c0.8,0,1.3,0,1.6-0.1c0.3-0.1,0.5-0.2,0.7-0.5
			c0.2-0.2,0.3-0.5,0.3-0.8c0-0.3-0.1-0.5-0.2-0.7c-0.2-0.2-0.4-0.4-0.7-0.5c-0.2-0.1-0.7-0.2-1.7-0.2h-1.3v2.4
			C43.6,53.6,43.6,53.7,43.6,53.7z M43.6,49.9h1.2c0.8,0,1.2,0,1.4-0.1c0.3-0.1,0.6-0.2,0.8-0.4c0.2-0.2,0.2-0.5,0.2-0.8
			c0-0.3-0.1-0.5-0.2-0.6c-0.2-0.2-0.4-0.3-0.6-0.4c-0.1,0-0.4-0.1-1.2-0.1h-1.5V49.9z"/>
	</g>
	<g>
		<path class="st0" d="M50.6,46.5h3.1V47h-0.2c-0.2,0-0.4,0-0.5,0.1c-0.1,0.1-0.2,0.2-0.2,0.3c0,0.1-0.1,0.3-0.1,0.7v5.3
			c0,0.3,0,0.5,0.1,0.6c0.1,0.1,0.1,0.2,0.2,0.2c0.1,0.1,0.3,0.1,0.5,0.1h0.2v0.5h-3.1v-0.5h0.3c0.2,0,0.4,0,0.5-0.1
			c0.1-0.1,0.2-0.1,0.2-0.2c0-0.1,0.1-0.3,0.1-0.6v-5.4c0-0.3,0-0.5-0.1-0.6c0-0.1-0.1-0.2-0.2-0.2c-0.1,0-0.3-0.1-0.5-0.1h-0.3
			V46.5z"/>
		<path class="st0" d="M54.1,55h-3.8v-1.1h0.6c0.3,0,0.3,0,0.3,0c0,0,0.1,0,0.1-0.1c0,0,0-0.1,0-0.5v-5.4c0-0.4,0-0.5,0-0.5
			c0,0,0-0.1-0.1-0.1c0,0-0.1,0-0.4,0h-0.6v-1.1h3.8v1.1h-0.6c-0.2,0-0.3,0-0.3,0c0,0-0.1,0.1-0.1,0.1c0,0,0,0.1,0,0.6v5.3
			c0,0.3,0,0.4,0,0.4c0,0.1,0.1,0.1,0.1,0.1c0,0,0.1,0,0.3,0h0.6V55z M51.5,54.4h1.3c-0.1-0.1-0.3-0.2-0.3-0.4
			c-0.1-0.2-0.1-0.4-0.1-0.7V48c0-0.4,0-0.6,0.1-0.8c0.1-0.2,0.2-0.3,0.3-0.4c0,0,0,0,0,0h-1.3c0.1,0.1,0.3,0.2,0.3,0.4
			c0.1,0.1,0.1,0.4,0.1,0.7v5.4c0,0.3,0,0.6-0.1,0.7C51.8,54.2,51.7,54.3,51.5,54.4z"/>
	</g>
	<g>
		<path class="st0" d="M55.6,46.2H56l0.1,0.3h5l0-0.3h0.4l0.9,2.4l-0.5,0.2c-0.3-0.6-0.6-1.1-0.9-1.4c-0.3-0.3-0.8-0.4-1.3-0.4
			c-0.2,0-0.4,0-0.4,0c0,0-0.1,0-0.1,0.1c0,0,0,0.2,0,0.4v5.7c0,0.3,0,0.5,0,0.5c0,0.1,0.1,0.2,0.1,0.2c0.1,0.1,0.1,0.1,0.2,0.1
			c0.1,0,0.3,0,0.6,0v0.5H57v-0.5c0.3,0,0.6,0,0.6,0c0.1,0,0.2-0.1,0.3-0.2c0.1-0.1,0.1-0.3,0.1-0.6v-5.8c0-0.2,0-0.3,0-0.3
			c0,0-0.1-0.1-0.1-0.1c0,0-0.1,0-0.3,0c-0.4,0-0.8,0.1-1,0.2c-0.3,0.1-0.5,0.3-0.7,0.6c-0.2,0.3-0.4,0.6-0.6,1l-0.5-0.2L55.6,46.2z
			"/>
		<path class="st0" d="M60.5,55h-3.8v-1.1l0.3,0c0.5,0,0.6,0,0.6,0c0.1,0,0.1-0.1,0.1-0.1c0,0,0.1-0.1,0.1-0.5v-5.8
			c0-0.1,0-0.1,0-0.1c0,0-0.1,0-0.1,0c-0.4,0-0.7,0-0.9,0.1c-0.2,0.1-0.4,0.3-0.6,0.5c-0.2,0.2-0.4,0.5-0.5,0.9l-0.1,0.3l-1.1-0.4
			l1-2.9h0.9l0.1,0.3l4.5,0l0-0.3h0.9l1,2.9l-1.1,0.4l-0.1-0.3c-0.2-0.6-0.5-1-0.8-1.2c-0.3-0.2-0.7-0.3-1.2-0.3c-0.1,0-0.2,0-0.2,0
			c0,0.1,0,0.1,0,0.2v5.7c0,0.3,0,0.4,0,0.5c0,0,0,0.1,0,0.1c0,0,0,0,0.1,0c0,0,0.2,0,0.6,0l0.3,0V55z M57.9,54.4h1.3
			c-0.1,0-0.1-0.1-0.1-0.1c-0.1-0.1-0.2-0.2-0.2-0.3c0-0.1-0.1-0.2-0.1-0.6v-5.7c0-0.3,0-0.5,0-0.5c0-0.1,0.1-0.2,0.3-0.3
			c0,0,0,0,0,0H58c0,0,0,0,0,0c0.2,0.1,0.2,0.2,0.3,0.2c0,0.1,0.1,0.2,0.1,0.5v5.8c0,0.4,0,0.6-0.1,0.8C58.1,54.2,58,54.3,57.9,54.4
			z M55.8,46.6l-0.5,1.5c0.1-0.2,0.2-0.4,0.4-0.6c0.3-0.3,0.5-0.5,0.8-0.6c0.2-0.1,0.3-0.1,0.5-0.1h-1.2L55.8,46.6z M60.2,46.8
			c0.4,0.1,0.7,0.2,1,0.4c0.3,0.2,0.5,0.5,0.7,0.9l-0.5-1.5l0,0.2H60.2z"/>
	</g>
	<g>
		<path class="st0" d="M63.5,46.5h3.2V47h-0.2c-0.3,0-0.6,0.1-0.7,0.2c-0.1,0.1-0.1,0.3-0.1,0.7v4.7l4.2-4.6c0-0.3,0-0.5,0-0.6
			c0-0.1-0.1-0.2-0.2-0.2C69.5,47,69.3,47,69.1,47h-0.3v-0.5H72V47h-0.3c-0.3,0-0.5,0.1-0.6,0.2C71,47.3,71,47.5,71,47.8v5.6
			c0,0.4,0,0.6,0.1,0.7c0.1,0.1,0.3,0.1,0.7,0.1H72v0.5h-3.1v-0.5H69c0.3,0,0.5,0,0.6-0.1c0.1,0,0.2-0.1,0.2-0.2c0-0.1,0-0.3,0-0.6
			v-4.5l-4.2,4.6c0,0.4,0,0.6,0.1,0.7c0.1,0.1,0.3,0.1,0.7,0.1h0.2v0.5h-3.2v-0.5h0.2c0.3,0,0.6,0,0.7-0.1c0.1-0.1,0.1-0.3,0.1-0.6
			v-5.7c0-0.3,0-0.6-0.1-0.7C64.3,47,64.1,47,63.8,47h-0.3V46.5z"/>
		<path class="st0" d="M72.3,55h-3.8v-1.1H69c0.4,0,0.5,0,0.5,0v0c0,0,0-0.1,0-0.5v-3.7l-3.6,3.9c0,0.2,0,0.3,0,0.3c0,0,0.1,0,0.5,0
			h0.5V55h-3.8v-1.1h0.5c0.3,0,0.5,0,0.5,0c0,0,0-0.1,0-0.4v-5.7c0-0.4-0.1-0.5-0.1-0.5l0,0c0,0-0.1-0.1-0.3-0.1h-0.6v-1.1h3.8v1.1
			h-0.5c-0.4,0-0.4,0.1-0.4,0.1l0,0c0,0-0.1,0.1-0.1,0.5v3.9l3.6-3.9c0-0.3,0-0.4,0-0.4c0,0,0,0-0.1-0.1c0,0-0.1-0.1-0.3-0.1h-0.6
			v-1.1h3.8v1.1h-0.6c-0.3,0-0.3,0.1-0.3,0.1c0,0-0.1,0.1-0.1,0.5v5.6c0,0.3,0,0.4,0,0.5c0,0,0.1,0,0.5,0h0.5V55z M69.8,54.4H71
			c0,0-0.1-0.1-0.1-0.1c-0.2-0.1-0.2-0.4-0.2-0.9v-5.6c0-0.4,0.1-0.7,0.2-0.9c0-0.1,0.1-0.1,0.2-0.1h-1.3c0,0,0,0,0,0
			c0.2,0.1,0.3,0.3,0.3,0.4c0,0.1,0,0.2,0,0.7V48l-0.9,1l0.9-1v5.3c0,0.5,0,0.7-0.1,0.8C70.1,54.2,70,54.3,69.8,54.4z M64.5,54.4
			h1.2c0,0-0.1-0.1-0.1-0.1c-0.2-0.1-0.2-0.4-0.2-0.9v-5.5c0-0.5,0.1-0.7,0.2-0.9c0-0.1,0.1-0.1,0.2-0.1h-1.3c0.1,0,0.1,0.1,0.2,0.1
			c0.2,0.2,0.2,0.4,0.2,0.9v5.7C64.8,53.9,64.7,54.2,64.5,54.4C64.5,54.4,64.5,54.4,64.5,54.4z"/>
	</g>
</g>
</svg>
