<svg xmlns="http://www.w3.org/2000/svg" style="display: none;"><symbol id="file" viewBox="0 0 550.801 550.801"><title>doc-file-format-symbol</title><path d="M281,413.575c-18.581,0-29.415,17.687-29.415,41.322c0,23.825,11.19,40.605,29.595,40.605 c18.594,0,29.236-17.687,29.236-41.322C310.416,432.338,299.953,413.575,281,413.575z"/><path d="M142.57,413.934c-6.139,0-10.115,0.538-12.456,1.076v79.586c2.341,0.549,6.138,0.549,9.563,0.549 c24.898,0.18,41.141-13.542,41.141-42.588C181.008,427.286,166.206,413.934,142.57,413.934z"/><path d="M475.095,131.992c-0.032-2.526-0.833-5.021-2.568-6.993L366.324,3.694c-0.021-0.034-0.053-0.045-0.084-0.076 c-0.633-0.707-1.36-1.29-2.141-1.804c-0.232-0.15-0.465-0.285-0.707-0.422c-0.686-0.366-1.393-0.67-2.131-0.892 c-0.2-0.058-0.379-0.14-0.58-0.192C359.87,0.114,359.047,0,358.203,0H97.2C85.292,0,75.6,9.693,75.6,21.601v507.6 c0,11.913,9.692,21.601,21.6,21.601H453.6c11.918,0,21.601-9.688,21.601-21.601V133.202 C475.2,132.796,475.137,132.398,475.095,131.992z M189.854,500.914c-12.814,10.652-32.305,15.704-56.133,15.704 c-14.262,0-24.366-0.907-31.219-1.804V395.35c10.104-1.624,23.28-2.531,37.18-2.531c23.095,0,38.074,4.156,49.803,12.994 c12.638,9.387,20.579,24.363,20.579,45.837C210.06,474.932,201.583,490.989,189.854,500.914z M279.734,517.346 c-36.091,0-57.206-27.253-57.206-61.905c0-36.455,23.28-63.703,59.189-63.703c37.356,0,57.755,27.976,57.755,61.536 C339.473,493.162,315.288,517.346,279.734,517.346z M419.787,494.428c8.3,0,17.508-1.814,22.918-3.972l4.155,21.474 c-5.052,2.537-16.421,5.236-31.219,5.236c-42.05,0-63.703-26.172-63.703-60.818c0-41.502,29.595-64.604,66.403-64.604 c14.26,0,25.091,2.885,29.964,5.416l-5.601,21.832c-5.585-2.342-13.353-4.515-23.093-4.515c-21.832,0-38.807,13.179-38.807,40.247 C380.806,479.082,395.244,494.428,419.787,494.428z M97.2,366.752V21.601h250.203v110.515c0,5.961,4.831,10.8,10.8,10.8H453.6 l0.011,223.836H97.2z"/><path d="M248.023,149.099h78.592c3.945,0,7.151-3.201,7.151-7.153c0-3.952-3.206-7.156-7.151-7.156h-78.592 c-3.953,0-7.146,3.204-7.146,7.156C240.872,145.898,244.062,149.099,248.023,149.099z"/><path d="M365.059,192.024H169.538c-3.952,0-7.161,3.201-7.161,7.153c0,3.955,3.209,7.151,7.161,7.151h195.521 c3.955,0,7.162-3.196,7.162-7.151C372.221,195.226,369.02,192.024,365.059,192.024z"/><path d="M189.973,163.432l6.626-26.937c1.695-6.539,2.805-12.062,3.829-18.18h0.166c0.675,6.199,1.695,11.641,3.138,18.18 l5.956,26.937h11.222l15.367-57.267h-10.621l-5.946,25.914c-1.529,6.971-2.896,13.505-3.91,19.802h-0.177 c-0.844-6.204-2.036-12.577-3.478-19.375l-5.693-26.335h-10.96l-6.194,25.914c-1.627,7.22-3.251,14.025-4.174,20.05h-0.158 c-0.934-5.69-2.299-13.002-3.747-19.968l-5.439-25.996h-11.132l14.022,57.267h11.303V163.432z"/><path d="M365.059,248.849H169.538c-3.952,0-7.161,3.201-7.161,7.156c0,3.952,3.209,7.153,7.161,7.153h195.521 c3.955,0,7.162-3.201,7.162-7.153C372.221,252.05,369.02,248.849,365.059,248.849z"/><path d="M365.059,307.03H169.538c-3.952,0-7.161,3.206-7.161,7.161c0,3.95,3.209,7.151,7.161,7.151h195.521 c3.955,0,7.162-3.201,7.162-7.151C372.221,310.236,369.02,307.03,365.059,307.03z"/></symbol><symbol id="instagram-logo" viewBox="0 0 510 510"><title>instagram-logo</title><path d="M459,0H51C22.95,0,0,22.95,0,51v408c0,28.05,22.95,51,51,51h408c28.05,0,51-22.95,51-51V51C510,22.95,487.05,0,459,0z M255,153c56.1,0,102,45.9,102,102c0,56.1-45.9,102-102,102c-56.1,0-102-45.9-102-102C153,198.9,198.9,153,255,153z M63.75,459 C56.1,459,51,453.9,51,446.25V229.5h53.55C102,237.15,102,247.35,102,255c0,84.15,68.85,153,153,153c84.15,0,153-68.85,153-153 c0-7.65,0-17.85-2.55-25.5H459v216.75c0,7.65-5.1,12.75-12.75,12.75H63.75z M459,114.75c0,7.65-5.1,12.75-12.75,12.75h-51 c-7.65,0-12.75-5.1-12.75-12.75v-51c0-7.65,5.1-12.75,12.75-12.75h51C453.9,51,459,56.1,459,63.75V114.75z"/></symbol><symbol id="linkedin-logo" viewBox="0 0 430.117 430.117"><title>linkedin-logo</title><path id="LinkedIn" d="M430.117,261.543V420.56h-92.188V272.193c0-37.271-13.334-62.707-46.703-62.707 c-25.473,0-40.632,17.142-47.301,33.724c-2.432,5.928-3.058,14.179-3.058,22.477V420.56h-92.219c0,0,1.242-251.285,0-277.32h92.21 v39.309c-0.187,0.294-0.43,0.611-0.606,0.896h0.606v-0.896c12.251-18.869,34.13-45.824,83.102-45.824 C384.633,136.724,430.117,176.361,430.117,261.543z M52.183,9.558C20.635,9.558,0,30.251,0,57.463 c0,26.619,20.038,47.94,50.959,47.94h0.616c32.159,0,52.159-21.317,52.159-47.94C103.128,30.251,83.734,9.558,52.183,9.558z M5.477,420.56h92.184v-277.32H5.477V420.56z"/></symbol><symbol id="google-plus" viewBox="0 0 491.858 491.858"><title>google-plus</title><path d="M377.472,224.957H201.319v58.718H308.79c-16.032,51.048-63.714,88.077-120.055,88.077 c-69.492,0-125.823-56.335-125.823-125.824c0-69.492,56.333-125.823,125.823-125.823c34.994,0,66.645,14.289,89.452,37.346 l42.622-46.328c-34.04-33.355-80.65-53.929-132.074-53.929C84.5,57.193,0,141.693,0,245.928s84.5,188.737,188.736,188.737 c91.307,0,171.248-64.844,188.737-150.989v-58.718L377.472,224.957L377.472,224.957z"/><polygon points="491.858,224.857 455.827,224.857 455.827,188.826 424.941,188.826 424.941,224.857 388.91,224.857 388.91,255.74 424.941,255.74 424.941,291.772 455.827,291.772 455.827,255.74 491.858,255.74 "/></symbol><symbol id="twitter-logo" viewBox="0 0 612 612"><title>twitter-logo-silhouette</title><path d="M612,116.258c-22.525,9.981-46.694,16.75-72.088,19.772c25.929-15.527,45.777-40.155,55.184-69.411 c-24.322,14.379-51.169,24.82-79.775,30.48c-22.907-24.437-55.49-39.658-91.63-39.658c-69.334,0-125.551,56.217-125.551,125.513 c0,9.828,1.109,19.427,3.251,28.606C197.065,206.32,104.556,156.337,42.641,80.386c-10.823,18.51-16.98,40.078-16.98,63.101 c0,43.559,22.181,81.993,55.835,104.479c-20.575-0.688-39.926-6.348-56.867-15.756v1.568c0,60.806,43.291,111.554,100.693,123.104 c-10.517,2.83-21.607,4.398-33.08,4.398c-8.107,0-15.947-0.803-23.634-2.333c15.985,49.907,62.336,86.199,117.253,87.194 c-42.947,33.654-97.099,53.655-155.916,53.655c-10.134,0-20.116-0.612-29.944-1.721c55.567,35.681,121.536,56.485,192.438,56.485 c230.948,0,357.188-191.291,357.188-357.188l-0.421-16.253C573.872,163.526,595.211,141.422,612,116.258z"/></symbol><symbol id="facebook-logo" viewBox="0 0 96.124 96.123"><title>facebook-logo</title><path d="M72.089,0.02L59.624,0C45.62,0,36.57,9.285,36.57,23.656v10.907H24.037c-1.083,0-1.96,0.878-1.96,1.961v15.803 c0,1.083,0.878,1.96,1.96,1.96h12.533v39.876c0,1.083,0.877,1.96,1.96,1.96h16.352c1.083,0,1.96-0.878,1.96-1.96V54.287h14.654 c1.083,0,1.96-0.877,1.96-1.96l0.006-15.803c0-0.52-0.207-1.018-0.574-1.386c-0.367-0.368-0.867-0.575-1.387-0.575H56.842v-9.246 c0-4.444,1.059-6.7,6.848-6.7l8.397-0.003c1.082,0,1.959-0.878,1.959-1.96V1.98C74.046,0.899,73.17,0.022,72.089,0.02z"/></symbol><symbol id="game" viewBox="0 0 24.855 24.855"><title>game</title><path d="M24.489,0.199c-0.297-0.231-0.701-0.264-1.031-0.085L0.496,12.552 c-0.336,0.182-0.53,0.549-0.491,0.93c0.039,0.38,0.304,0.7,0.67,0.81l6.117,1.835c0.23,1.823,0.773,6.113,0.877,6.946 c0.119,0.949,0.777,1.104,1.419,0.23c0.428-0.584,2.891-4.073,2.962-4.173l5.448,5.448c0.18,0.18,0.422,0.277,0.67,0.277 c0.084,0,0.169-0.011,0.253-0.035c0.329-0.092,0.583-0.352,0.665-0.683l5.74-22.961C24.918,0.813,24.786,0.43,24.489,0.199z M17.655,22.056l-5.421-5.421l7.847-10.903l-12.23,8.736l-4.449-1.335L22.468,2.805L17.655,22.056z"/></symbol><symbol id="message" viewBox="0 0 511.626 511.627"><title>envelope-of-white-paper</title><path d="M498.208,68.235c-8.945-8.947-19.701-13.418-32.261-13.418H45.682c-12.562,0-23.318,4.471-32.264,13.418 C4.471,77.18,0,87.935,0,100.499v310.633c0,12.566,4.471,23.312,13.418,32.257c8.945,8.953,19.701,13.422,32.264,13.422h420.266 c12.56,0,23.315-4.469,32.261-13.422c8.949-8.945,13.418-19.697,13.418-32.257V100.499 C511.626,87.935,507.158,77.18,498.208,68.235z M475.078,411.125c0,2.475-0.903,4.616-2.714,6.424 c-1.81,1.81-3.949,2.706-6.42,2.706H45.679c-2.474,0-4.616-0.896-6.423-2.706c-1.809-1.808-2.712-3.949-2.712-6.424V191.858 c6.09,6.852,12.657,13.134,19.7,18.843c51.012,39.209,91.553,71.374,121.627,96.5c9.707,8.186,17.607,14.561,23.697,19.13 c6.09,4.571,14.322,9.185,24.694,13.846c10.373,4.668,20.129,6.991,29.265,6.991h0.287h0.284c9.134,0,18.894-2.323,29.263-6.991 c10.376-4.661,18.613-9.274,24.701-13.846c6.089-4.569,13.99-10.944,23.698-19.13c30.074-25.126,70.61-57.291,121.624-96.5 c7.043-5.708,13.613-11.991,19.694-18.843V411.125L475.078,411.125z M475.078,107.92v3.14c0,11.229-4.421,23.745-13.271,37.543 c-8.851,13.798-18.419,24.792-28.691,32.974c-36.74,28.936-74.897,59.101-114.495,90.506c-1.14,0.951-4.474,3.757-9.996,8.418 c-5.514,4.668-9.894,8.241-13.131,10.712c-3.241,2.478-7.471,5.475-12.703,8.993c-5.236,3.518-10.041,6.14-14.418,7.851 c-4.377,1.707-8.47,2.562-12.275,2.562h-0.284h-0.287c-3.806,0-7.895-0.855-12.275-2.562c-4.377-1.711-9.185-4.333-14.417-7.851 c-5.231-3.519-9.467-6.516-12.703-8.993c-3.234-2.471-7.614-6.044-13.132-10.712c-5.52-4.661-8.854-7.467-9.995-8.418 c-39.589-31.406-77.75-61.57-114.487-90.506c-27.981-22.076-41.969-49.106-41.969-81.083c0-2.472,0.903-4.615,2.712-6.421 c1.809-1.809,3.949-2.714,6.423-2.714h420.266c1.52,0.855,2.854,1.093,3.997,0.715c1.143-0.385,1.998,0.331,2.566,2.138 c0.571,1.809,1.095,2.664,1.57,2.57c0.477-0.096,0.764,1.093,0.859,3.571c0.089,2.473,0.137,3.718,0.137,3.718V107.92 L475.078,107.92z"/></symbol><symbol id="tel" viewBox="0 0 401.998 401.998"><title>telephone-handle-silhouette</title><path d="M401.129,311.475c-1.137-3.426-8.371-8.473-21.697-15.129c-3.61-2.098-8.754-4.949-15.41-8.566 c-6.662-3.617-12.709-6.95-18.13-9.996c-5.432-3.045-10.521-5.995-15.276-8.846c-0.76-0.571-3.139-2.234-7.136-5 c-4.001-2.758-7.375-4.805-10.14-6.14c-2.759-1.327-5.473-1.995-8.138-1.995c-3.806,0-8.56,2.714-14.268,8.135 c-5.708,5.428-10.944,11.324-15.7,17.706c-4.757,6.379-9.802,12.275-15.126,17.7c-5.332,5.427-9.713,8.138-13.135,8.138 c-1.718,0-3.86-0.479-6.427-1.424c-2.566-0.951-4.518-1.766-5.858-2.423c-1.328-0.671-3.607-1.999-6.845-4.004 c-3.244-1.999-5.048-3.094-5.428-3.285c-26.075-14.469-48.438-31.029-67.093-49.676c-18.649-18.658-35.211-41.019-49.676-67.097 c-0.19-0.381-1.287-2.19-3.284-5.424c-2-3.237-3.333-5.518-3.999-6.854c-0.666-1.331-1.475-3.283-2.425-5.852 s-1.427-4.709-1.427-6.424c0-3.424,2.713-7.804,8.138-13.134c5.424-5.327,11.326-10.373,17.7-15.128 c6.379-4.755,12.275-9.991,17.701-15.699c5.424-5.711,8.136-10.467,8.136-14.273c0-2.663-0.666-5.378-1.997-8.137 c-1.332-2.765-3.378-6.139-6.139-10.138c-2.762-3.997-4.427-6.374-4.999-7.139c-2.852-4.755-5.799-9.846-8.848-15.271 c-3.049-5.424-6.377-11.47-9.995-18.131c-3.615-6.658-6.468-11.799-8.564-15.415C98.986,9.233,93.943,1.997,90.516,0.859 C89.183,0.288,87.183,0,84.521,0c-5.142,0-11.85,0.95-20.129,2.856c-8.282,1.903-14.799,3.899-19.558,5.996 c-9.517,3.995-19.604,15.605-30.264,34.826C4.863,61.566,0.01,79.271,0.01,96.78c0,5.135,0.333,10.131,0.999,14.989 c0.666,4.853,1.856,10.326,3.571,16.418c1.712,6.09,3.093,10.614,4.137,13.56c1.045,2.948,2.996,8.229,5.852,15.845 c2.852,7.614,4.567,12.275,5.138,13.988c6.661,18.654,14.56,35.307,23.695,49.964c15.03,24.362,35.541,49.539,61.521,75.521 c25.981,25.98,51.153,46.49,75.517,61.526c14.655,9.134,31.314,17.032,49.965,23.698c1.714,0.568,6.375,2.279,13.986,5.141 c7.614,2.854,12.897,4.805,15.845,5.852c2.949,1.048,7.474,2.43,13.559,4.145c6.098,1.715,11.566,2.905,16.419,3.576 c4.856,0.657,9.853,0.996,14.989,0.996c17.508,0,35.214-4.856,53.105-14.562c19.219-10.656,30.826-20.745,34.823-30.269 c2.102-4.754,4.093-11.273,5.996-19.555c1.909-8.278,2.857-14.985,2.857-20.126C401.99,314.814,401.703,312.819,401.129,311.475z"/></symbol><symbol id="employee" viewBox="0 0 512 512"><title>employee</title><path d="M414.265,341.072c19.335-11.869,32.261-33.204,32.261-57.506v-24.695c0.044-0.328,0.074-0.658,0.074-0.993v-25.811 c0-20.253-8.977-38.436-23.146-50.82c-4.56-22.994-12.803-44.873-24.556-65.155l36.346-36.346c1.94-1.941,2.666-4.787,1.891-7.421 c-0.775-2.634-2.928-4.632-5.61-5.211l-39.276-8.479L379.404,45.79l-8.479-39.276c-0.579-2.684-2.579-4.836-5.211-5.611 c-2.635-0.776-5.48-0.05-7.422,1.891l-36.032,36.031C289.473,19.479,252.102,9.276,213.784,9.276 c-57.104,0-110.791,22.237-151.168,62.616C22.238,112.27,0,165.957,0,223.061c0,57.104,22.237,110.79,62.616,151.168 c40.378,40.378,94.064,62.616,151.168,62.616c12.27,0,24.518-1.059,36.565-3.136c-2.709,9.963-4.159,20.334-4.159,30.94v39.255 c0,4.141,3.357,7.499,7.499,7.499h42.346c4.143,0,7.499-3.358,7.499-7.499c0-4.142-3.357-7.499-7.499-7.499h-34.846v-31.756 c0-12.905,2.403-25.563,7.013-37.543c0.093-0.189,0.189-0.376,0.267-0.575c9.672-24.627,28.567-45.709,52.162-59.304 c0.172-0.099,0.345-0.197,0.518-0.295c0.647-0.369,1.301-0.728,1.955-1.085c0.488-0.265,0.976-0.533,1.467-0.791 c0.163-0.087,0.328-0.169,0.492-0.255c6.345-3.305,12.953-6.054,19.723-8.216l11.991,23.296l-16.075,69.784 c-0.607,2.634,0.251,5.39,2.245,7.215l31.086,28.452c1.433,1.312,3.248,1.967,5.062,1.967c1.816,0,3.631-0.656,5.063-1.967 l31.087-28.452c1.994-1.825,2.852-4.581,2.245-7.215l-16.075-69.784l11.991-23.296c17.718,5.658,34.326,15.364,48.042,28.396 c22.927,21.783,35.555,50.077,35.555,79.668v31.756H321.033c-4.143,0-7.499,3.358-7.499,7.499c0,4.142,3.357,7.499,7.499,7.499 h183.467c4.143,0,7.499-3.358,7.499-7.499v-39.255C512,407.392,469.885,356.959,414.265,341.072z M412.48,191.591 c11.628,9.625,19.05,24.162,19.05,40.401v17.664c-23.803-4.516-33.443-28.734-33.871-29.842c-1.041-2.746-3.588-4.63-6.516-4.825 c-2.933-0.197-5.703,1.337-7.097,3.922c-0.16,0.297-15.668,28.132-57.382,31.2v-16.677c0.246-2.701,0.399-5.426,0.452-8.177 c2.668-20.102,17.077-37.443,36.869-43.451c0.074-0.022,0.144-0.053,0.216-0.078c3.9-1.158,7.983-1.885,12.202-2.1 c0.892-0.045,1.791-0.068,2.695-0.068c0.843,0,1.68,0.024,2.514,0.064c0.234,0.011,0.467,0.03,0.701,0.044 c0.612,0.037,1.222,0.081,1.829,0.14c0.245,0.023,0.49,0.051,0.735,0.078c0.612,0.067,1.222,0.145,1.828,0.233 c0.212,0.031,0.424,0.061,0.635,0.095c0.674,0.107,1.343,0.227,2.008,0.359c0.139,0.028,0.28,0.052,0.418,0.081 c1.628,0.338,3.228,0.751,4.796,1.236c0.248,0.077,0.492,0.163,0.739,0.244c0.478,0.156,0.955,0.315,1.427,0.484 c0.45,0.163,0.898,0.334,1.344,0.509c0.229,0.089,0.458,0.179,0.686,0.271c0.596,0.244,1.189,0.495,1.777,0.762 c0.017,0.008,0.034,0.015,0.051,0.023c4.003,1.822,7.801,4.169,11.331,7.019C412.094,191.347,412.29,191.464,412.48,191.591z M323.398,193.979c-3.372-12.792-9.002-24.881-16.743-35.894l19.806-19.806l10.441,2.254c6.232,9.277,11.377,19.2,15.356,29.607 C340.544,175.236,330.548,183.555,323.398,193.979z M405.372,169.886c-7.072-3-14.758-4.827-22.811-5.237 c-1.148-0.058-2.304-0.088-3.466-0.088s-2.318,0.03-3.466,0.088c-3.066,0.156-6.071,0.535-9.017,1.088 c-2.69-7.167-5.867-14.134-9.536-20.848l6.716,1.45c0.289,0.062,0.579,0.103,0.869,0.131c0.102,0.01,0.204,0.01,0.306,0.016 c0.136,0.007,0.272,0.021,0.408,0.021c0.054,0,0.107-0.007,0.161-0.008c0.106-0.002,0.211-0.009,0.317-0.016 c0.181-0.012,0.361-0.03,0.54-0.055c0.106-0.014,0.211-0.028,0.316-0.047c0.204-0.037,0.405-0.085,0.604-0.138 c0.072-0.019,0.145-0.032,0.216-0.054c0.26-0.078,0.515-0.172,0.766-0.278c0.087-0.037,0.171-0.08,0.256-0.12 c0.173-0.081,0.343-0.166,0.51-0.26c0.09-0.051,0.179-0.104,0.267-0.159c0.166-0.103,0.328-0.214,0.486-0.33 c0.072-0.053,0.146-0.104,0.216-0.16c0.225-0.178,0.443-0.366,0.649-0.572l12.603-12.602l4.619-4.619 C395.409,140.668,401.253,154.988,405.372,169.886z M389.642,75.099l1.385-1.385l23.883,5.156l-51.947,51.946l-23.882-5.156 L389.642,75.099z M372.474,60.072l5.492,5.492l-59.221,59.221l-27.265,27.265l-0.001,0.001l-37.684,37.684 c-0.001,0.001-0.002,0.001-0.003,0.002l-29.306,29.306v0.001c-0.742,0.742-1.608,0.852-2.059,0.852 c-0.113,0-0.251-0.007-0.407-0.029c-0.468-0.066-1.095-0.268-1.652-0.825l-1.374-1.373c-1.136-1.136-1.136-2.984,0-4.119 l29.567-29.566c0.002-0.002,0.004-0.005,0.006-0.007l37.547-37.547c0.001-0.002,0.003-0.003,0.004-0.005l27.125-27.125 c0.004-0.003,0.007-0.006,0.01-0.009L372.474,60.072z M208.391,228.274l1.374,1.373c3.384,3.383,7.881,5.246,12.665,5.246 c4.784,0,9.282-1.863,12.664-5.246l21.853-21.852c1.725,4.873,2.617,10.032,2.617,15.266c0,25.243-20.537,45.78-45.779,45.78 c-25.243,0-45.78-20.537-45.78-45.78s20.537-45.779,45.78-45.779c5.879,0,11.632,1.115,17.002,3.266l-22.397,22.397 C201.408,209.928,201.408,221.29,208.391,228.274z M328.703,53.592c0.001-0.001,0.002-0.003,0.004-0.005l30.46-30.459 l5.156,23.883l-51.946,51.946l-5.156-23.883L328.703,53.592z M263.125,403.422c-0.2,0.34-0.403,0.678-0.6,1.02 c-0.069,0.121-0.136,0.244-0.205,0.366c-2.326,4.064-4.431,8.243-6.281,12.53c-13.833,2.994-28.029,4.509-42.255,4.509 c-109.61,0-198.786-89.175-198.786-198.786S104.174,24.274,213.784,24.274c34.33,0,67.84,8.798,97.501,25.524l-17.559,17.56 c-0.45,0.451-0.836,0.95-1.152,1.486c-0.633,1.071-0.99,2.284-1.038,3.527c-0.024,0.622,0.029,1.251,0.164,1.874l1.32,6.111 c-24.139-13.457-51.199-20.504-79.234-20.504c-38.979,0-76.714,13.963-106.252,39.318c-3.144,2.698-3.504,7.432-0.806,10.575 c2.697,3.142,7.432,3.504,10.574,0.806c26.82-23.022,61.085-35.701,96.483-35.701c30.085,0,58.934,8.927,83.624,25.847 l2.349,10.88l-19.612,19.612c-19.227-13.884-42.528-21.485-66.361-21.485c-62.507,0-113.359,50.852-113.359,113.359 c0,33.816,14.934,65.614,40.972,87.242c3.185,2.645,7.913,2.209,10.561-0.978c2.646-3.187,2.209-7.914-0.978-10.561 c-22.597-18.769-35.557-46.363-35.557-75.704c0-54.236,44.125-98.36,98.36-98.36c19.873,0,39.326,6.07,55.616,17.233 l-27.335,27.335c-8.69-4.58-18.352-6.984-28.282-6.984c-33.513,0-60.778,27.265-60.778,60.777 c0,33.512,27.265,60.778,60.778,60.778s60.777-27.265,60.777-60.778c0-9.3-2.127-18.419-6.181-26.7l27.502-27.502 c10.666,16.063,16.263,34.637,16.263,54.202c0,0.186-0.006,0.371-0.007,0.558c-0.348,2.771-0.548,5.585-0.548,8.449v1.436 c-5.231,49.345-47.096,87.918-97.806,87.918c-15.43,0-30.198-3.47-43.894-10.311c-3.708-1.852-8.21-0.348-10.06,3.358 s-0.347,8.209,3.358,10.06c15.797,7.891,32.819,11.892,50.596,11.892c41.689,0,78.189-22.626,97.881-56.239v3.386 c0,0.983,0.028,1.963,0.071,2.942c0.006,0.142,0.008,0.284,0.015,0.426c0.014,0.288,0.043,0.572,0.061,0.859 c0.033,0.518,0.069,1.036,0.114,1.552c0.026,0.304,0.044,0.609,0.074,0.912c0.028,0.279,0.065,0.555,0.096,0.834 c0.033,0.291,0.074,0.581,0.111,0.872c0.066,0.524,0.123,1.049,0.201,1.57c0.089,0.6,0.2,1.193,0.305,1.788 c0.085,0.479,0.162,0.96,0.257,1.436c0.128,0.643,0.276,1.277,0.423,1.913c0.096,0.418,0.186,0.838,0.29,1.254 c0.171,0.684,0.362,1.36,0.554,2.036c0.101,0.355,0.197,0.713,0.303,1.066c0.221,0.733,0.462,1.457,0.708,2.179 c0.096,0.284,0.188,0.569,0.288,0.851c0.281,0.794,0.583,1.577,0.893,2.357c0.079,0.198,0.154,0.397,0.235,0.594 c0.356,0.87,0.732,1.729,1.123,2.58c0.044,0.095,0.085,0.19,0.129,0.285c1.694,3.648,3.705,7.116,5.997,10.377 c-28.129,31.235-67.926,49.027-110.127,49.027c-81.724,0-148.212-66.487-148.212-148.212c0-34.022,11.815-67.254,33.267-93.573 c2.617-3.211,2.136-7.934-1.075-10.551c-3.211-2.618-7.936-2.135-10.551,1.075c-23.629,28.988-36.642,65.584-36.642,103.049 c0,89.994,73.216,163.21,163.21,163.21c45.895,0,89.204-19.117,120.105-52.718c3.098,2.804,6.457,5.322,10.036,7.519 C309.609,350.874,280.439,373.827,263.125,403.422z M401.892,448.77l-22.796,20.866l-22.796-20.866l14.369-62.381h16.854 L401.892,448.77z M359.72,352.829c0.646-0.119,1.294-0.23,1.942-0.338c0.417-0.069,0.834-0.138,1.251-0.202 c0.921-0.144,1.844-0.278,2.768-0.4c0.954-0.125,1.908-0.241,2.864-0.343c0.451-0.048,0.901-0.094,1.352-0.137 c0.087-0.008,0.173-0.016,0.26-0.024c1.094-0.101,2.188-0.185,3.282-0.255c0.417-0.026,0.834-0.055,1.251-0.077 c0.039-0.002,0.078-0.004,0.117-0.006c0.875-0.045,1.75-0.068,2.625-0.093c0.556,0.014,1.107,0.042,1.666,0.042 c0.559,0,1.111-0.029,1.666-0.042c0.875,0.025,1.75,0.048,2.625,0.093c0.305,0.016,0.611,0.029,0.916,0.047 c1.276,0.076,2.552,0.179,3.828,0.297c0.506,0.048,1.012,0.099,1.517,0.153c0.956,0.101,1.911,0.218,2.866,0.343 c0.924,0.122,1.847,0.256,2.77,0.4c0.415,0.064,0.83,0.133,1.245,0.201c0.649,0.109,1.298,0.22,1.946,0.339l-9.556,18.565h-19.642 L359.72,352.829z M381.214,335.945c-0.06,0.001-0.118-0.008-0.178-0.005c-0.022,0.001-0.045,0.003-0.067,0.004 c-0.591-0.016-1.18-0.038-1.771-0.047c-0.068-0.001-0.137-0.001-0.205,0c-0.594,0.008-1.185,0.031-1.777,0.047 c-23.512-0.842-43.311-17.652-48.945-39.636c-0.006-0.024-0.012-0.048-0.018-0.072c-0.184-0.723-0.349-1.452-0.502-2.186 c-0.033-0.158-0.066-0.317-0.097-0.476c-0.121-0.608-0.228-1.221-0.327-1.837c-0.038-0.238-0.078-0.476-0.113-0.715 c-0.081-0.554-0.148-1.112-0.212-1.67c-0.031-0.277-0.067-0.553-0.093-0.83c-0.055-0.563-0.093-1.131-0.129-1.699 c-0.017-0.26-0.04-0.518-0.053-0.778c-0.039-0.823-0.063-1.649-0.063-2.481v-18.423c33.428-2.1,53.137-17.824,62.897-28.701 c6.869,10.696,20.126,25.491,41.969,28.416v18.708C431.528,311.766,409.146,334.827,381.214,335.945z"/></symbol><symbol id="download" viewBox="0 0 512 512"><title>download</title><g> <g> <path d="M498.966,339.946c-7.197,0-13.034,5.837-13.034,13.034v49.804c0,28.747-23.388,52.135-52.135,52.135H78.203 c-28.747,0-52.135-23.388-52.135-52.135V352.98c0-7.197-5.835-13.034-13.034-13.034C5.835,339.946,0,345.782,0,352.98v49.804 c0,43.121,35.082,78.203,78.203,78.203h355.594c43.121,0,78.203-35.082,78.203-78.203V352.98 C512,345.782,506.165,339.946,498.966,339.946z"/> </g> </g><g> <g> <path d="M419.833,391.3H92.167c-7.197,0-13.034,5.837-13.034,13.034s5.835,13.034,13.034,13.034h327.665 c7.199,0,13.034-5.835,13.034-13.034C432.866,397.137,427.031,391.3,419.833,391.3z"/> </g> </g><g> <g> <path d="M387.919,207.93c-4.795-5.367-13.034-5.834-18.404-1.038l-100.482,89.765V44.048c0-7.197-5.835-13.034-13.034-13.034 c-7.197,0-13.034,5.835-13.034,13.034v252.609l-100.482-89.764c-5.367-4.796-13.607-4.328-18.404,1.038 c-4.794,5.369-4.331,13.609,1.037,18.404l109.174,97.527c6.187,5.529,13.946,8.292,21.708,8.292 c7.759,0,15.519-2.763,21.708-8.289l109.174-97.53C392.25,221.537,392.714,213.297,387.919,207.93z"/> </g> </g></symbol><symbol id="info" viewBox="0 0 512 512"><title>info</title><g> <g> <path d="M437.019,74.982C388.667,26.628,324.381,0,256,0S123.333,26.628,74.982,74.982C26.628,123.333,0,187.619,0,256 s26.628,132.667,74.982,181.019C123.333,485.372,187.619,512,256,512s132.667-26.628,181.019-74.981 C485.372,388.667,512,324.381,512,256S485.372,123.333,437.019,74.982z M256,491.602c-129.911,0-235.602-105.69-235.602-235.602 S126.089,20.398,256,20.398S491.602,126.089,491.602,256S385.911,491.602,256,491.602z"/> </g> </g><g> <g> <path d="M462.131,298.131c-5.464-1.392-11.012,1.907-12.4,7.367c-5.689,22.34-15.158,43.377-28.142,62.528 c-3.161,4.663-1.943,11.004,2.719,14.166c1.753,1.188,3.744,1.758,5.715,1.758c3.268,0,6.48-1.568,8.451-4.478 c14.313-21.11,24.751-44.306,31.024-68.94C470.888,305.073,467.591,299.52,462.131,298.131z"/> </g> </g><g> <g> <path d="M466.104,245.801c-5.632,0-10.199,4.567-10.199,10.199c0,2.915-0.063,5.855-0.188,8.739 c-0.244,5.628,4.121,10.387,9.749,10.63c0.15,0.007,0.299,0.01,0.448,0.01c5.43,0,9.945-4.282,10.182-9.759 c0.138-3.176,0.207-6.412,0.207-9.62C476.303,250.368,471.736,245.801,466.104,245.801z"/> </g> </g><g> <g> <path d="M256,172.877c-19.683,0-35.697,16.014-35.697,35.697V386.04c0,19.683,16.014,35.697,35.697,35.697 c19.683,0,35.697-16.014,35.697-35.697V208.574C291.697,188.89,275.683,172.877,256,172.877z M271.299,386.04 c0,8.436-6.863,15.299-15.299,15.299c-8.436,0-15.299-6.863-15.299-15.299V208.574c0-8.436,6.863-15.299,15.299-15.299 c8.436,0,15.299,6.863,15.299,15.299V386.04z"/> </g> </g><g> <g> <path d="M281.235,100.707c-6.652-6.638-15.851-10.444-25.235-10.444c-9.385,0-18.584,3.806-25.246,10.453 c-6.642,6.644-10.451,15.844-10.451,25.244c0,9.384,3.806,18.583,10.46,25.251c6.652,6.639,15.851,10.446,25.237,10.446 c9.385,0,18.584-3.807,25.251-10.461c6.639-6.652,10.446-15.851,10.446-25.236C291.697,116.56,287.888,107.359,281.235,100.707z M266.827,136.773c-2.858,2.85-6.804,4.486-10.827,4.486c-4.026,0-7.972-1.636-10.813-4.47c-2.85-2.858-4.486-6.805-4.486-10.828 c0-4.032,1.633-7.976,4.469-10.813c2.858-2.85,6.805-4.486,10.83-4.486c4.024,0,7.971,1.636,10.819,4.478 c2.847,2.847,4.479,6.79,4.479,10.82C271.299,129.985,269.663,133.931,266.827,136.773z"/> </g> </g></symbol><symbol id="team" viewBox="0 0 512 512"><title>team</title><g> <g> <path d="M451.72,237.26c-17.422-8.71-50.087-8.811-51.469-8.811c-4.142,0-7.5,3.358-7.5,7.5c0,4.142,3.358,7.5,7.5,7.5 c8.429,0.001,32.902,1.299,44.761,7.228c1.077,0.539,2.221,0.793,3.348,0.793c2.751,0,5.4-1.52,6.714-4.147 C456.927,243.618,455.425,239.113,451.72,237.26z"/> </g> </g><g> <g> <path d="M489.112,344.041l-30.975-8.85c-1.337-0.382-2.271-1.62-2.271-3.011v-10.339c2.52-1.746,4.924-3.7,7.171-5.881 c10.89-10.568,16.887-24.743,16.887-39.915v-14.267l2.995-5.989c3.287-6.575,5.024-13.936,5.024-21.286v-38.65 c0-4.142-3.358-7.5-7.5-7.5H408.27c-26.244,0-47.596,21.352-47.596,47.596v0.447c0,6.112,1.445,12.233,4.178,17.699l3.841,7.682 v12.25c0,19.414,9.567,36.833,24.058,47.315l0.002,10.836c0,1.671,0,2.363-6.193,4.133l-15.114,4.318l-43.721-15.898 c0.157-2.063-0.539-4.161-2.044-5.742l-13.971-14.678v-24.64c1.477-1.217,2.933-2.467,4.344-3.789 c17.625-16.52,27.733-39.844,27.733-63.991v-19.678c5.322-11.581,8.019-23.836,8.019-36.457v-80.19c0-4.142-3.358-7.5-7.5-7.5 H232.037c-39.51,0-71.653,32.144-71.653,71.653v16.039c0,12.621,2.697,24.876,8.019,36.457v16.931 c0,28.036,12.466,53.294,32.077,69.946v25.22l-13.971,14.678c-1.505,1.581-2.201,3.679-2.044,5.742l-46.145,16.779 c-3.344,1.216-6.451,2.863-9.272,4.858l-7.246-3.623c21.57-9.389,28.403-22.594,28.731-23.25c1.056-2.111,1.056-4.597,0-6.708 c-5.407-10.814-6.062-30.635-6.588-46.561c-0.175-5.302-0.341-10.311-0.658-14.771c-2.557-35.974-29.905-63.103-63.615-63.103 s-61.059,27.128-63.615,63.103c-0.317,4.461-0.483,9.47-0.658,14.773c-0.526,15.925-1.182,35.744-6.588,46.558 c-1.056,2.111-1.056,4.597,0,6.708c0.328,0.656,7.147,13.834,28.76,23.234l-20.127,10.063C6.684,358.176,0,368.991,0,381.02 v55.409c0,4.142,3.358,7.5,7.5,7.5s7.5-3.358,7.5-7.5V381.02c0-6.312,3.507-11.987,9.152-14.81l25.063-12.531l8.718,8.285 c6.096,5.793,13.916,8.688,21.739,8.688c7.821,0,15.645-2.897,21.739-8.688l8.717-8.284l8.172,4.086 c-3.848,6.157-6.032,13.377-6.032,20.94v57.725c0,4.142,3.358,7.5,7.5,7.5c4.142,0,7.5-3.358,7.5-7.5v-57.725 c0-10.296,6.501-19.578,16.178-23.097l48.652-17.691l20.253,30.381c2.589,3.884,6.738,6.375,11.383,6.835 c0.518,0.051,1.033,0.076,1.547,0.076c4.098,0,8.023-1.613,10.957-4.546l12.356-12.356v78.124c0,4.142,3.358,7.5,7.5,7.5 c4.142,0,7.5-3.358,7.5-7.5v-78.124l12.356,12.356c2.933,2.934,6.858,4.547,10.957,4.547c0.513,0,1.029-0.025,1.546-0.076 c4.646-0.46,8.795-2.951,11.384-6.835l20.254-30.38l48.651,17.691c9.676,3.519,16.178,12.801,16.178,23.097v57.725 c0,4.142,3.358,7.5,7.5,7.5c4.142,0,7.5-3.358,7.5-7.5v-57.725c0-10.428-4.143-20.208-11.093-27.441l1.853-0.529 c1.869-0.534,4.419-1.265,6.979-2.52l19.149,19.149v69.066c0,4.142,3.358,7.5,7.5,7.5c4.142,0,7.5-3.358,7.5-7.5v-69.066 l19.016-19.016c1.011,0.514,2.073,0.948,3.191,1.267l30.976,8.85c7.07,2.02,12.009,8.567,12.009,15.921v62.044 c0,4.142,3.358,7.5,7.5,7.5c4.142,0,7.5-3.358,7.5-7.5v-62.044C512,360.371,502.588,347.892,489.112,344.041z M48.115,330.794 c-14.029-5.048-21.066-11.778-24.07-15.453c2.048-5.354,3.376-11.486,4.275-17.959c4.136,9.917,11.063,18.383,19.795,24.423 V330.794z M91.08,351.092c-6.397,6.078-16.418,6.077-22.813-0.001l-6.975-6.628c1.177-2.205,1.824-4.705,1.824-7.324v-7.994 c5.232,1.635,10.794,2.517,16.558,2.517c5.757,0,11.316-0.886,16.557-2.512l-0.001,7.988c0,2.62,0.646,5.121,1.824,7.327 L91.08,351.092z M79.676,316.662c-22.396,0-40.615-18.22-40.615-40.615c0-4.142-3.358-7.5-7.5-7.5c-0.42,0-0.83,0.043-1.231,0.11 c0.022-0.645,0.043-1.291,0.065-1.93c0.167-5.157,0.328-10.028,0.625-14.206c0.958-13.476,6.343-25.894,15.163-34.968 c8.899-9.156,20.793-14.198,33.491-14.198s24.591,5.042,33.491,14.198c8.82,9.074,14.205,21.492,15.163,34.968 c0.296,4.177,0.458,9.047,0.628,14.203c0.015,0.443,0.03,0.892,0.045,1.338c-8.16-12.572-20.762-21.837-37.045-27.069 c-15.043-4.833-27.981-4.534-28.527-4.52c-1.964,0.055-3.828,0.877-5.191,2.291l-13.532,14.034 c-2.875,2.982-2.789,7.73,0.193,10.605s7.73,2.788,10.605-0.193l11.26-11.677c9.697,0.474,40.894,4.102,53.027,30.819 C116.738,302.04,99.816,316.662,79.676,316.662z M111.229,330.819l0.001-8.945c8.725-6.007,15.662-14.457,19.801-24.449 c0.899,6.458,2.226,12.576,4.27,17.918C132.314,318.983,125.244,325.773,111.229,330.819z M183.403,209.145v-18.608 c0-1.129-0.255-2.244-0.746-3.261c-4.826-9.994-7.273-20.598-7.273-31.518V139.72c0-31.239,25.415-56.653,56.653-56.653h104.769 v72.692c0,10.92-2.447,21.524-7.273,31.518c-0.491,1.017-0.746,2.132-0.746,3.261v21.355c0,20.311-8.165,39.15-22.991,53.047 c-1.851,1.734-3.772,3.36-5.758,4.875c-0.044,0.03-0.086,0.063-0.129,0.094c-13.889,10.545-30.901,15.67-48.667,14.519 C213.201,281.965,183.403,248.897,183.403,209.145z M225.632,360.056c-0.052,0.052-0.173,0.175-0.418,0.149 c-0.244-0.024-0.34-0.167-0.381-0.229l-23.325-34.988l7.506-7.887l35.385,24.187L225.632,360.056z M256.095,331.113 l-40.615-27.762v-14c10.509,5.681,22.276,9.234,34.791,10.044c1.977,0.128,3.942,0.191,5.901,0.191 c14.341,0,28.143-3.428,40.538-9.935v13.7L256.095,331.113z M287.357,359.978c-0.041,0.062-0.137,0.205-0.381,0.229 c-0.245,0.031-0.365-0.098-0.418-0.149l-18.767-18.767l35.385-24.188l7.507,7.887L287.357,359.978z M424.308,353.65l-17.02-17.019 c0.297-1.349,0.465-2.826,0.464-4.455l-0.001-3.165c4.723,1.55,9.701,2.47,14.852,2.624c0.578,0.018,1.151,0.026,1.727,0.026 c5.692,0,11.248-0.86,16.536-2.501v3.02c0,1.496,0.188,2.962,0.542,4.371L424.308,353.65z M452.591,305.196 c-7.949,7.714-18.45,11.788-29.537,11.446c-21.704-0.651-39.361-19.768-39.361-42.613v-14.021c0-1.165-0.271-2.313-0.792-3.354 l-4.633-9.266c-1.697-3.395-2.594-7.195-2.594-10.991v-0.447c0-17.974,14.623-32.596,32.596-32.596h64.673v31.15 c0,5.034-1.19,10.075-3.441,14.578l-3.786,7.572c-0.521,1.042-0.792,2.189-0.792,3.354v16.038 C464.924,287.126,460.544,297.478,452.591,305.196z"/> </g> </g><g> <g> <path d="M472.423,380.814c-4.142,0-7.5,3.358-7.5,7.5v48.115c0,4.142,3.358,7.5,7.5,7.5c4.142,0,7.5-3.358,7.5-7.5v-48.115 C479.923,384.173,476.565,380.814,472.423,380.814z"/> </g> </g><g> <g> <path d="M39.577,390.728c-4.142,0-7.5,3.358-7.5,7.5v38.201c0,4.142,3.358,7.5,7.5,7.5c4.142,0,7.5-3.358,7.5-7.5v-38.201 C47.077,394.087,43.719,390.728,39.577,390.728z"/> </g> </g><g> <g> <path d="M317.532,158.475c-28.366-28.366-87.715-22.943-111.917-19.295c-7.623,1.149-13.155,7.6-13.155,15.339v17.278 c0,4.142,3.358,7.5,7.5,7.5c4.142,0,7.5-3.358,7.5-7.5v-17.279c0-0.255,0.168-0.473,0.392-0.507 c9.667-1.457,28.85-3.705,48.725-2.38c23.388,1.557,40.328,7.428,50.349,17.45c2.929,2.929,7.678,2.929,10.606,0 C320.461,166.152,320.461,161.403,317.532,158.475z"/> </g> </g><g> <g> <path d="M167.884,396.853c-4.142,0-7.5,3.358-7.5,7.5v32.077c0,4.142,3.358,7.5,7.5,7.5c4.142,0,7.5-3.358,7.5-7.5v-32.077 C175.384,400.212,172.026,396.853,167.884,396.853z"/> </g> </g><g> <g> <path d="M344.306,396.853c-4.142,0-7.5,3.358-7.5,7.5v32.077c0,4.142,3.358,7.5,7.5,7.5c4.142,0,7.5-3.358,7.5-7.5v-32.077 C351.806,400.212,348.448,396.853,344.306,396.853z"/> </g> </g></symbol></svg>